<?xml version="1.0" encoding="UTF-8"?>
<svg id="Capa_2" data-name="Capa 2" xmlns="http://www.w3.org/2000/svg" viewBox="0 0 136.89 136.89">
  <defs>
    <style>
      .cls-1, .cls-2 {
        fill: #fff;
      }

      .cls-2 {
        fill-rule: evenodd;
      }

      .cls-3 {
        fill: #3653a1;
      }
    </style>
  </defs>
  <g id="Capa_2-2" data-name="Capa 2">
    <circle class="cls-3" cx="68.44" cy="68.45" r="68.45"/>
    <path class="cls-1" d="M51.5,23.23h9.71v4.06h-5.65v4.06h5.65v4.06h-9.71v-12.19Z"/>
    <path class="cls-1" d="M63.15,23.23h9.71v3.53h-5.65v.71h5.65v8.12h-9.71v-3.71h5.65v-.71h-5.65v-7.95Z"/>
    <path class="cls-1" d="M74.81,23.23h9.71v3.53h-5.65v.71h5.65v8.12h-9.71v-3.71h5.65v-.71h-5.65v-7.95Z"/>
    <path class="cls-2" d="M68.41,113.18l-24.22-7.06-7.14-63.58h62.79l-7.14,63.57-24.29,7.07ZM51.17,71.32l.67,7.8h25.74l-.86,10.11-8.28,2.35h0s-8.27-2.34-8.27-2.34l-.53-6.22h-7.45l1.04,12.24,15.21,4.43,15.23-4.43,1.86-21.85.18-2.09,1.34-15.78h-37.2l.68,7.8h28.38l-.68,7.98h-27.04Z"/>
  </g>
</svg>