<?xml version="1.0" encoding="UTF-8"?>
<svg id="Capa_2" data-name="Capa 2" xmlns="http://www.w3.org/2000/svg" viewBox="0 0 138.89 138.89">
  <defs>
    <style>
      .cls-1 {
        fill: #fff;
      }

      .cls-2 {
        fill: #1d1d1b;
        stroke: #1d1d1b;
        stroke-miterlimit: 10;
        stroke-width: 2px;
      }
    </style>
  </defs>
  <g id="Capa_6" data-name="Capa 6">
    <g>
      <circle class="cls-2" cx="69.44" cy="69.45" r="68.45"/>
      <path class="cls-1" d="M81.19,60.37h-24.1c-8.09-.32-14.38-7.13-14.07-15.21.3-7.64,6.43-13.77,14.07-14.07h24.1c8.09.32,14.38,7.13,14.07,15.21-.3,7.64-6.43,13.77-14.07,14.07ZM57.09,36.65c-5.02.25-8.88,4.52-8.63,9.53.23,4.67,3.96,8.4,8.63,8.63h24.1c5.02-.25,8.88-4.52,8.63-9.53-.23-4.67-3.96-8.4-8.63-8.63h-24.1Z"/>
      <path class="cls-1" d="M68.96,84.07h-11.87c-8.08,0-14.63-6.55-14.63-14.63s6.55-14.63,14.63-14.63c1.53,0,2.78,1.24,2.78,2.78s-1.24,2.78-2.78,2.78c-5.01,0-9.07,4.06-9.07,9.07s4.06,9.07,9.07,9.07h9.09v-20.92c0-1.53,1.24-2.78,2.78-2.78s2.78,1.24,2.78,2.78v23.7c0,1.53-1.24,2.78-2.78,2.78Z"/>
      <path class="cls-1" d="M57.27,107.79c-8.09.32-14.9-5.98-15.21-14.07-.32-8.09,5.98-14.9,14.07-15.21.38-.01.76-.01,1.14,0,1.53,0,2.78,1.24,2.78,2.78s-1.24,2.78-2.78,2.78c-5.02-.01-9.1,4.05-9.12,9.07-.01,5.02,4.05,9.1,9.07,9.12s9.1-4.05,9.12-9.07c0,0,0-.01,0-.02v-11.87c0-1.53,1.24-2.78,2.78-2.78s2.78,1.24,2.78,2.78v11.87c-.01,8.07-6.55,14.62-14.63,14.63Z"/>
      <path class="cls-1" d="M80.99,84.45c-8.19,0-14.83-6.64-14.83-14.83s6.64-14.83,14.83-14.83,14.83,6.64,14.83,14.83-6.64,14.83-14.83,14.83h0ZM80.99,60.37c-5.12,0-9.27,4.15-9.27,9.27,0,5.12,4.15,9.27,9.27,9.27,5.12,0,9.27-4.15,9.27-9.27,0,0,0-.01,0-.02-.01-5.11-4.16-9.25-9.27-9.25Z"/>
      <path class="cls-1" d="M68.96,60.37h0c-1.53-.01-2.77-1.27-2.76-2.8h0s.18-23.72.18-23.72c.01-1.52,1.24-2.74,2.76-2.76h0c1.53.01,2.77,1.27,2.76,2.8h0s-.18,23.72-.18,23.72c-.02,1.51-1.24,2.73-2.76,2.76Z"/>
    </g>
  </g>
</svg>