<?xml version="1.0" encoding="UTF-8"?>
<svg id="Capa_2" data-name="Capa 2" xmlns="http://www.w3.org/2000/svg" viewBox="0 0 86.71 80.34">
  <defs>
    <style>
      .cls-1 {
        stroke: #e6007e;
      }

      .cls-1, .cls-2, .cls-3, .cls-4, .cls-5, .cls-6, .cls-7, .cls-8, .cls-9, .cls-10, .cls-11 {
        stroke-miterlimit: 10;
      }

      .cls-1, .cls-7 {
        stroke-width: 1.44px;
      }

      .cls-1, .cls-7, .cls-12 {
        fill: #e6007e;
        opacity: .5;
      }

      .cls-2 {
        stroke-width: 2.05px;
      }

      .cls-2, .cls-3, .cls-4, .cls-5, .cls-6, .cls-7, .cls-8, .cls-9, .cls-10, .cls-11 {
        stroke: #1d1d1b;
      }

      .cls-2, .cls-3, .cls-5, .cls-11 {
        fill: #1d1d1b;
      }

      .cls-3 {
        stroke-width: 2.23px;
      }

      .cls-4 {
        stroke-width: 2px;
      }

      .cls-4, .cls-8 {
        fill: none;
      }

      .cls-5 {
        stroke-width: 2.12px;
      }

      .cls-6 {
        fill: #fff;
      }

      .cls-6, .cls-8 {
        stroke-width: 3px;
      }

      .cls-9 {
        stroke-width: 2.87px;
      }

      .cls-9, .cls-10 {
        fill: #dadada;
      }

      .cls-10 {
        stroke-width: 2.91px;
      }

      .cls-11 {
        stroke-width: 2.26px;
      }
    </style>
  </defs>
  <g id="Capa_12" data-name="Capa 12">
    <path class="cls-10" d="M79.85,63.08c-7.64,15.47-31.32,15.83-35.48,15.8-2.84-.02-27.35-.19-35.4-16.37-3.45-6.94-2.51-14.06-1.92-18.56.49-3.76,1.97-15.1,11.57-23.58,9.44-8.34,20.6-8.48,25.36-8.54,4.77-.06,15.3-.2,24.54,7.19,10.18,8.14,11.99,19.98,12.74,24.94.85,5.55,1.89,12.42-1.42,19.14Z"/>
    <path class="cls-9" d="M9.9,30.28c-1.44-.08-2.96-9.38-.95-17.72.36-1.49,1.64-6.29,5.34-9.92.47-.46.66-.59.81-.68,5.18-3.08,18.38,8.26,17.07,11.09-.28.6-1.04.42-3.25.97-4.17,1.04-6.96,3.05-9.27,4.72-2.52,1.82-5.56,4.01-7.8,7.97-1.33,2.34-1.42,3.61-1.95,3.58Z"/>
    <path class="cls-9" d="M77.53,30.28c1.44-.08,2.96-9.38.95-17.72-.36-1.49-1.64-6.29-5.34-9.92-.47-.46-.66-.59-.81-.68-5.18-3.08-18.38,8.26-17.07,11.09.28.6,1.04.42,3.25.97,4.17,1.04,6.96,3.05,9.27,4.72,2.52,1.82,5.56,4.01,7.8,7.97,1.33,2.34,1.42,3.61,1.95,3.58Z"/>
    <circle class="cls-6" cx="28.08" cy="46.15" r="4.19"/>
    <circle class="cls-6" cx="61.59" cy="46.15" r="4.24"/>
    <path class="cls-7" d="M49.06,50.58c.69,1.69-1.69,5.27-4.69,5.27s-5.38-3.59-4.69-5.27c.62-1.53,3.78-1.53,4.69-1.53s4.06,0,4.69,1.53Z"/>
    <line class="cls-2" x1="73.66" y1="53.36" x2="86.57" y2="51.56"/>
    <line class="cls-5" x1="73.66" y1="58.24" x2="86.06" y2="60.56"/>
    <line class="cls-3" x1="13.41" y1="53.36" x2=".1" y2="52.46"/>
    <line class="cls-11" x1="14" y1="59.35" x2=".1" y2="60.56"/>
    <ellipse class="cls-1" cx="26.46" cy="57.01" rx="4.95" ry="1.79"/>
    <ellipse class="cls-1" cx="63.07" cy="57.01" rx="4.95" ry="1.79"/>
    <path class="cls-8" d="M36.76,65.59c-.16-1.75.69-3.38,2.11-4.09.87-.43,2.22-.64,3.23,0,1.56.99,1.4,3.41,2.04,3.4.37,0,.39-.81,1.19-1.88.4-.54,1.31-1.74,2.72-1.9,1.47-.16,2.57.9,2.72,1.06,1.35,1.35,1.05,3.21,1.02,3.4"/>
    <path class="cls-12" d="M13.41,21.86c-.92-.32-.1-4.69.47-6.87,0,0,.57-2.84,2.61-4.84.19-.18.28-.26.35-.3,0,0,.02-.01.04-.03,1.28-.77,4.19.76,4.19.76,1.4.74,3.94,2.37,3.63,3.23-.05.13-.13.19-1.08.67-.61.31-1.17.59-1.66.83-1.14.84-2.1,1.56-2.84,2.11-2.4,1.79-3.59,2.69-3.86,2.94-1.26,1.15-1.54,1.62-1.86,1.51Z"/>
    <path class="cls-4" d="M48.85,51.11c.55,1.81-1.76,4.75-4.48,4.75-2.71,0-5.03-2.94-4.48-4.75.48-1.58,3.07-2.05,4.48-2.05s3.99.48,4.48,2.05Z"/>
    <path class="cls-12" d="M72.76,21.21c.92-.32.1-4.69-.47-6.87,0,0-.57-2.84-2.61-4.84-.19-.18-.28-.26-.35-.3,0,0-.02-.01-.04-.03-1.28-.77-4.19.76-4.19.76-1.4.74-3.94,2.37-3.63,3.23.05.13.13.19,1.08.67.61.31,1.17.59,1.66.83,1.14.84,2.1,1.56,2.84,2.11,2.4,1.79,3.59,2.69,3.86,2.94,1.26,1.15,1.54,1.62,1.86,1.51Z"/>
  </g>
</svg>