<?xml version="1.0" encoding="UTF-8"?>
<svg id="Capa_2" data-name="Capa 2" xmlns="http://www.w3.org/2000/svg" viewBox="0 0 86.71 80.34">
  <defs>
    <style>
      .cls-1 {
        stroke: #e6007e;
      }

      .cls-1, .cls-2, .cls-3, .cls-4, .cls-5, .cls-6, .cls-7, .cls-8, .cls-9, .cls-10, .cls-11, .cls-12, .cls-13 {
        stroke-miterlimit: 10;
      }

      .cls-1, .cls-2, .cls-9, .cls-14 {
        fill: #e6007e;
      }

      .cls-1, .cls-9 {
        stroke-width: 1.44px;
      }

      .cls-1, .cls-9, .cls-14 {
        opacity: .5;
      }

      .cls-2, .cls-3, .cls-4, .cls-5, .cls-6, .cls-7, .cls-8, .cls-9, .cls-10, .cls-11, .cls-12, .cls-13 {
        stroke: #1d1d1b;
      }

      .cls-2, .cls-6 {
        stroke-width: 2px;
      }

      .cls-3 {
        stroke-width: 3.07px;
      }

      .cls-3, .cls-6, .cls-8, .cls-10 {
        fill: none;
      }

      .cls-4 {
        stroke-width: 2.05px;
      }

      .cls-4, .cls-5, .cls-7, .cls-13 {
        fill: #1d1d1b;
      }

      .cls-5 {
        stroke-width: 2.23px;
      }

      .cls-7 {
        stroke-width: 2.12px;
      }

      .cls-8 {
        stroke-width: 2.48px;
      }

      .cls-10 {
        stroke-width: 3px;
      }

      .cls-11 {
        stroke-width: 2.87px;
      }

      .cls-11, .cls-12 {
        fill: #dadada;
      }

      .cls-12 {
        stroke-width: 2.91px;
      }

      .cls-13 {
        stroke-width: 2.26px;
      }
    </style>
  </defs>
  <g id="Capa_12" data-name="Capa 12">
    <path class="cls-12" d="M79.85,63.08c-7.64,15.47-31.32,15.83-35.48,15.8-2.84-.02-27.35-.19-35.4-16.37-3.45-6.94-2.51-14.06-1.92-18.56.49-3.76,1.97-15.1,11.57-23.58,9.44-8.34,20.6-8.48,25.36-8.54,4.77-.06,15.3-.2,24.54,7.19,10.18,8.14,11.99,19.98,12.74,24.94.85,5.55,1.89,12.42-1.42,19.14Z"/>
    <path class="cls-11" d="M9.9,30.28c-1.44-.08-2.96-9.38-.95-17.72.36-1.49,1.64-6.29,5.34-9.92.47-.46.66-.59.81-.68,5.18-3.08,18.38,8.26,17.07,11.09-.28.6-1.04.42-3.25.97-4.17,1.04-6.96,3.05-9.27,4.72-2.52,1.82-5.56,4.01-7.8,7.97-1.33,2.34-1.42,3.61-1.95,3.58Z"/>
    <path class="cls-11" d="M77.53,30.28c1.44-.08,2.96-9.38.95-17.72-.36-1.49-1.64-6.29-5.34-9.92-.47-.46-.66-.59-.81-.68-5.18-3.08-18.38,8.26-17.07,11.09.28.6,1.04.42,3.25.97,4.17,1.04,6.96,3.05,9.27,4.72,2.52,1.82,5.56,4.01,7.8,7.97,1.33,2.34,1.42,3.61,1.95,3.58Z"/>
    <path class="cls-9" d="M49.06,50.58c.69,1.69-1.69,5.27-4.69,5.27s-5.38-3.59-4.69-5.27c.62-1.53,3.78-1.53,4.69-1.53s4.06,0,4.69,1.53Z"/>
    <line class="cls-4" x1="73.66" y1="53.36" x2="86.57" y2="51.56"/>
    <line class="cls-7" x1="73.66" y1="58.24" x2="86.06" y2="60.56"/>
    <line class="cls-5" x1="13.41" y1="53.36" x2=".1" y2="52.46"/>
    <line class="cls-13" x1="14" y1="59.35" x2=".1" y2="60.56"/>
    <ellipse class="cls-1" cx="26.46" cy="57.01" rx="4.95" ry="1.79"/>
    <ellipse class="cls-1" cx="63.07" cy="57.01" rx="4.95" ry="1.79"/>
    <path class="cls-14" d="M13.41,21.86c-.92-.32-.1-4.69.47-6.87,0,0,.57-2.84,2.61-4.84.19-.18.28-.26.35-.3,0,0,.02-.01.04-.03,1.28-.77,4.19.76,4.19.76,1.4.74,3.94,2.37,3.63,3.23-.05.13-.13.19-1.08.67-.61.31-1.17.59-1.66.83-1.14.84-2.1,1.56-2.84,2.11-2.4,1.79-3.59,2.69-3.86,2.94-1.26,1.15-1.54,1.62-1.86,1.51Z"/>
    <path class="cls-6" d="M48.85,51.11c.55,1.81-1.76,4.75-4.48,4.75-2.71,0-5.03-2.94-4.48-4.75.48-1.58,3.07-2.05,4.48-2.05s3.99.48,4.48,2.05Z"/>
    <path class="cls-14" d="M72.76,21.21c.92-.32.1-4.69-.47-6.87,0,0-.57-2.84-2.61-4.84-.19-.18-.28-.26-.35-.3,0,0-.02-.01-.04-.03-1.28-.77-4.19.76-4.19.76-1.4.74-3.94,2.37-3.63,3.23.05.13.13.19,1.08.67.61.31,1.17.59,1.66.83,1.14.84,2.1,1.56,2.84,2.11,2.4,1.79,3.59,2.69,3.86,2.94,1.26,1.15,1.54,1.62,1.86,1.51Z"/>
    <path class="cls-3" d="M20.96,50.12c-.05-3.34,2.76-5.97,5.85-5.78,2.85.17,5.23,2.71,5.17,5.78"/>
    <path class="cls-10" d="M69.27,50.7c-3.35-.79-6.69-1.58-10.04-2.37-.2-.05-.24-.31-.07-.41,3.16-1.95,6.33-3.89,9.49-5.84"/>
    <path class="cls-2" d="M38.1,61.52c.16-.03.28,1.14,1.28,1.79.09.06.81.51,1.62.4,1.88-.25,2.35-3.26,3.42-3.16.87.08.78,2.11,2.37,2.79.05.02,1.03.43,2,.03,1.38-.57,1.6-2.32,1.88-2.25.47.1-.28,4.97-.51,6.27-.77,4.33-.97,5.26-1.93,6.2-.36.35-1.66,1.51-3.53,1.49-1.71-.02-2.89-1.03-3.32-1.4-.77-.68-1.41-1.6-2.52-5.98-.89-3.55-.99-6.12-.76-6.16Z"/>
    <path class="cls-8" d="M50.53,59.99c.13,1.45-.57,2.8-1.75,3.38-.72.36-1.84.53-2.68,0-1.29-.82-1.16-2.82-1.69-2.82-.31,0-.32.67-.99,1.56-.33.45-1.08,1.44-2.26,1.57-1.22.13-2.13-.75-2.26-.88-1.12-1.11-.87-2.66-.85-2.82"/>
  </g>
</svg>