<?xml version="1.0" encoding="UTF-8"?>
<svg id="Capa_2" data-name="Capa 2" xmlns="http://www.w3.org/2000/svg" xmlns:xlink="http://www.w3.org/1999/xlink" viewBox="0 0 161.27 161.27">
  <defs>
    <style>
      .cls-1 {
        fill: url(#Degradado_sin_nombre_128);
      }

      .cls-2 {
        fill: none;
        stroke: #fff;
        stroke-miterlimit: 10;
        stroke-width: 3.9px;
      }
    </style>
    <radialGradient id="Degradado_sin_nombre_128" data-name="Degradado sin nombre 128" cx="80.63" cy="80.63" fx="80.63" fy="80.63" r="80.63" gradientUnits="userSpaceOnUse">
      <stop offset="0" stop-color="#7342fe"/>
      <stop offset=".37" stop-color="#7241fc" stop-opacity=".99"/>
      <stop offset=".51" stop-color="#6f40f6" stop-opacity=".97"/>
      <stop offset=".6" stop-color="#6a3dec" stop-opacity=".92"/>
      <stop offset=".68" stop-color="#6339de" stop-opacity=".85"/>
      <stop offset=".75" stop-color="#5934cc" stop-opacity=".77"/>
      <stop offset=".81" stop-color="#4e2eb5" stop-opacity=".66"/>
      <stop offset=".86" stop-color="#40279a" stop-opacity=".53"/>
      <stop offset=".91" stop-color="#301f7a" stop-opacity=".38"/>
      <stop offset=".95" stop-color="#1d1556" stop-opacity=".21"/>
      <stop offset=".99" stop-color="#0a0b2f" stop-opacity=".03"/>
      <stop offset="1" stop-color="#070a29" stop-opacity="0"/>
    </radialGradient>
  </defs>
  <g id="Capa_3" data-name="Capa 3">
    <circle class="cls-1" cx="80.63" cy="80.63" r="80.63"/>
    <g>
      <path class="cls-2" d="M69.45,127.36v-11.68c.59.11.36.59.36.92.02,3.12.04,6.24,0,9.36-.02.79.19,1.03.99,1.03,6.94-.04,13.88-.04,20.81,0,.83,0,.97-.31.97-1.05-.04-4.79-.02-9.56-.02-14.34,0-1.78.04-3.56.04-5.34.53.23.3.73.3,1.09.02,6.66.02,13.33.02,19.99-7.79.02-15.64.02-23.47.02Z"/>
      <path class="cls-2" d="M92.62,106.26c-.02,1.78-.04,3.56-.04,5.34,0,4.79-.02,9.56.02,14.34,0,.75-.13,1.05-.97,1.05-6.94-.04-13.88-.04-20.81,0-.8,0-1-.25-.99-1.03.04-3.12.02-6.24,0-9.36,0-.33.23-.8-.36-.92-1.84.17-3.66.61-5.53.54-6.35-.25-11.28-2.95-14.16-8.77-1.55-3.14-3.37-6.07-5.52-8.81-.59-.75-1.5-1.05-2.18-1.67-.21-.19-.45-.34-.63-.57-.44-.63-.23-1.11.53-1.19,3.51-.36,6.41.8,8.76,3.47,1.19,1.36,1.93,3.03,3.09,4.42,2.33,2.82,5.31,4.35,8.91,4.77,2.18.25,4.25-.17,6.31-.8.42-.11.59-.38.63-.82.13-1.97.53-3.89,1.29-5.73.34-.82.89-1.51,1.31-2.36-1.95-.5-3.92-.65-5.78-1.23-5.14-1.57-9.65-4.14-12.93-8.56-1.57-2.11-2.67-4.46-3.3-6.99-.34-1.38-.74-2.76-.72-4.21.02-2.55-.09-5.11.06-7.66.17-3.22.59-6.42,1.74-9.42.72-1.86,1.76-3.56,3.24-4.96.45-.44.63-.79.34-1.51-1.4-3.77-1.54-7.62-.34-11.49.04-.11.06-.25.08-.38.42-1.97.85-2.16,2.71-1.42,3.64,1.44,6.31,4.02,8.59,7.14.64.88.51,1.26,1.9.36,1.84-1.19,3.98-1.55,6.1-1.78,3.81-.4,7.64-.29,11.45-.21,2.71.06,5.4.42,7.96,1.38.59.21,1.14.54,1.65.92.4.31.68.31,1.06-.21,1.72-2.45,3.7-4.67,6.26-6.24,1.25-.77,2.54-1.47,4.06-1.65.63-.08.89.13,1.06.63,1.57,4.39,1.8,8.75-.04,13.12-.23.54-.15.88.25,1.24,3.03,2.87,4.13,6.61,4.7,10.63.47,3.39.61,6.8.51,10.21-.15,5.98-2.16,11.18-6.52,15.34-2.56,2.43-5.63,4.04-8.93,5.27-2.35.88-4.83,1.11-7.3,1.72.25.59.7,1.03.82,1.63-.06.25.08.38.3.44.02.11.06.21.08.33.06.4.02.82.47,1.03.09.42.19.86.27,1.28-.02.33-.13.67.3.82,0,.11.02.23.02.36-.28.44-.02.79.21,1.15,0,.27.02.65.02,1.02Z"/>
      <path class="cls-2" d="M92.58,105.15c-.21-.36-.49-.71-.21-1.15.23.36.4.73.21,1.15Z"/>
      <path class="cls-2" d="M91.76,101.54c-.45-.21-.42-.63-.47-1.03.42.23.47.61.47,1.03Z"/>
      <path class="cls-2" d="M92.35,103.63c-.44-.15-.32-.5-.3-.82.44.15.34.52.3.82Z"/>
      <path class="cls-2" d="M91.21,100.19c-.23-.06-.36-.19-.3-.44.25.06.36.19.3.44Z"/>
    </g>
  </g>
</svg>