<?xml version="1.0" encoding="UTF-8"?>
<svg id="Capa_2" data-name="Capa 2" xmlns="http://www.w3.org/2000/svg" viewBox="0 0 101.3 92.19">
  <defs>
    <style>
      .cls-1 {
        fill: #fff;
      }

      .cls-2 {
        fill: none;
        stroke: #fff;
        stroke-miterlimit: 10;
        stroke-width: 5px;
      }
    </style>
  </defs>
  <g id="Capa_10" data-name="Capa 10">
    <path class="cls-2" d="M13.83,34.44c.28,9.94.55,19.87.83,29.81,4.41,3.07,18.82,12.28,39.19,11.33,19.25-.9,32.24-10.35,36.55-13.79-.32-9.73-.64-19.47-.96-29.2"/>
    <path class="cls-2" d="M48.5,2.8L3.94,25.91c-2.01,1.04-1.89,3.96.2,4.84l47.02,19.64c.74.31,1.59.27,2.3-.1l43.91-23.11c1.99-1.05,1.87-3.95-.2-4.83-15.46-6.55-30.91-13.1-46.37-19.65-.74-.31-1.58-.28-2.3.09Z"/>
    <path class="cls-2" d="M52.12,23.13c-8.52,5.26-17.04,10.52-25.56,15.78v42.3"/>
    <ellipse class="cls-1" cx="52.12" cy="23.13" rx="3.17" ry="2.6" transform="translate(-4.84 20.61) rotate(-21.4)"/>
    <circle class="cls-1" cx="26.56" cy="87.87" r="4.32"/>
  </g>
</svg>