<?xml version="1.0" encoding="UTF-8"?>
<svg id="Capa_2" data-name="Capa 2" xmlns="http://www.w3.org/2000/svg" viewBox="0 0 136.89 136.89">
  <defs>
    <style>
      .cls-1 {
        fill: #e54c27;
      }

      .cls-2 {
        fill: #fff;
      }
    </style>
  </defs>
  <g id="Capa_3" data-name="Capa 3">
    <circle class="cls-1" cx="68.45" cy="68.45" r="68.45"/>
    <g>
      <polygon class="cls-2" points="46.99 32.48 50.62 32.48 50.62 36.45 54.58 36.45 54.58 24.6 50.62 24.6 50.62 28.51 46.99 28.51 46.99 24.6 43.03 24.6 43.03 36.45 46.99 36.45 46.99 32.48"/>
      <polygon class="cls-2" points="59.79 36.45 63.75 36.45 63.75 28.53 67.24 28.53 67.24 24.6 56.3 24.6 56.3 28.53 59.79 28.53 59.79 36.45"/>
      <polygon class="cls-2" points="72.86 30.58 75.59 34.79 75.65 34.79 78.38 30.58 78.38 36.45 82.33 36.45 82.33 24.6 78.19 24.6 75.65 28.77 73.11 24.6 68.98 24.6 68.98 36.45 72.86 36.45 72.86 30.58"/>
      <polygon class="cls-2" points="93.84 32.54 88.26 32.54 88.26 24.6 84.3 24.6 84.3 36.45 93.84 36.45 93.84 32.54"/>
      <path class="cls-2" d="M37.32,41.66l5.67,63.58,25.45,7.06,25.46-7.06,5.68-63.58s-62.26,0-62.26,0ZM87.28,62.45h-29.84l.71,7.99h28.42l-2.14,23.95-15.99,4.43h-.01s-15.97-4.43-15.97-4.43l-1.11-12.52h7.83l.58,6.5,8.69,2.35h.01s8.69-2.35,8.69-2.35l.91-10.11h-27.03l-2.11-23.58h39.06l-.7,7.79Z"/>
    </g>
  </g>
</svg>