<?xml version="1.0" encoding="UTF-8"?>
<svg id="Capa_2" data-name="Capa 2" xmlns="http://www.w3.org/2000/svg" viewBox="0 0 196.83 196.83">
  <defs>
    <style>
      .cls-1 {
        fill: #fff;
      }

      .cls-2 {
        fill: #efd81b;
      }
    </style>
  </defs>
  <g id="Capa_11" data-name="Capa 11">
    <rect class="cls-1" width="196.83" height="196.83"/>
    <path class="cls-2" d="M0,0v196.83h196.83V0H0ZM105.44,152.89c0,19.16-11.32,28.5-27.7,28.5-14.8,0-23.39-7.66-27.74-16.91h0l15.06-9.12c2.9,5.15,5.11,9.51,11.45,9.51,5.27,0,9.6-2.38,9.6-11.63v-61.87h19.33v61.51ZM149.09,180.95c-17.17,0-28.27-7.75-33.69-18.45h0l15.08-8.73c3.95,6.48,9.12,10.79,18.23,10.79,7.66,0,12.11-3.39,12.11-8.68,0-6.34-4.58-8.58-13.04-12.3l-4.62-1.99c-13.35-5.68-22.2-12.81-22.2-27.88,0-13.87,10.57-24,27.08-24,11.76,0,20.21,3.66,26.29,14.36l-14.43,9.27c-3.17-5.68-6.59-7.91-11.89-7.91s-8.85,3.44-8.85,7.91c0,5.55,3.44,7.79,11.36,11.23l4.62,1.98c15.72,6.74,24.58,13.62,24.58,29.07,0,16.65-13.07,25.32-30.65,25.32Z"/>
  </g>
</svg>