<?xml version="1.0" encoding="UTF-8"?>
<svg id="Capa_2" data-name="Capa 2" xmlns="http://www.w3.org/2000/svg" viewBox="0 0 136.89 136.89">
  <defs>
    <style>
      .cls-1 {
        fill: #f0db4c;
      }

      .cls-2 {
        fill: #fff;
      }
    </style>
  </defs>
  <g id="Capa_7" data-name="Capa 7">
    <circle class="cls-1" cx="68.44" cy="68.45" r="68.45"/>
    <g id="Layer_1" data-name="Layer 1">
      <g>
        <path class="cls-2" d="M45.3,41.47h12.17v34.1c0,15.37-7.36,20.73-19.13,20.73-2.88,0-6.56-.48-8.96-1.28l1.36-9.85c1.68.56,3.84.96,6.24.96,5.12,0,8.32-2.32,8.32-10.65v-34.02Z"/>
        <path class="cls-2" d="M68.03,82.93c3.2,1.68,8.32,3.36,13.53,3.36,5.6,0,8.56-2.32,8.56-5.92,0-3.28-2.56-5.28-9.04-7.52-8.96-3.2-14.89-8.16-14.89-16.09,0-9.2,7.76-16.17,20.41-16.17,6.16,0,10.57,1.2,13.77,2.72l-2.72,9.76c-2.08-1.04-6-2.56-11.21-2.56s-7.84,2.48-7.84,5.2c0,3.44,2.96,4.96,10.01,7.68,9.52,3.52,13.93,8.48,13.93,16.17,0,9.04-6.88,16.73-21.69,16.73-6.16,0-12.25-1.68-15.29-3.36l2.48-10.01Z"/>
      </g>
    </g>
  </g>
</svg>