<?xml version="1.0" encoding="UTF-8"?>
<svg id="Capa_2" data-name="Capa 2" xmlns="http://www.w3.org/2000/svg" viewBox="0 0 136.89 136.89">
  <defs>
    <style>
      .cls-1 {
        fill: #e94e1b;
      }

      .cls-2 {
        fill: #fff;
      }
    </style>
  </defs>
  <g id="Capa_4" data-name="Capa 4">
    <circle class="cls-2" cx="68.44" cy="68.45" r="68.45"/>
    <path class="cls-1" d="M80.01,71.3c1.7-1.16,4.06-2.17,4.06-2.17,0,0-6.72,1.21-13.4,1.77-8.17.68-16.95.82-21.36.23-10.43-1.39,5.73-5.22,5.73-5.22,0,0-6.26-.42-13.99,3.3-9.11,4.41,22.56,6.42,38.96,2.1ZM65.19,65.73c-3.3-7.41-14.42-13.92,0-25.3,17.99-14.19,8.76-23.43,8.76-23.43,3.73,14.66-13.12,19.11-19.21,28.22-4.15,6.23,2.03,12.91,10.45,20.51ZM85.08,35.16s-30.4,7.6-15.88,24.33c4.29,4.93-1.13,9.37-1.13,9.37,0,0,10.88-5.62,5.88-12.65-4.67-6.56-8.24-9.82,11.12-21.05ZM84.02,82.1c-.09.17-.21.32-.35.45,22.26-5.85,14.07-20.63,3.44-16.88-.57.21-1.07.59-1.42,1.09.62-.22,1.26-.4,1.91-.52,5.38-1.13,13.1,7.2-3.57,15.86h0ZM92.2,92.91s2.52,2.07-2.76,3.68c-10.05,3.04-41.79,3.96-50.6.12-3.18-1.37,2.78-3.3,4.65-3.7,1.94-.42,3.07-.35,3.07-.35-3.52-2.48-22.78,4.88-9.79,6.98,35.44,5.76,64.62-2.59,55.43-6.73ZM53.41,85.72c-13.66,3.82,8.31,11.7,25.7,4.25-1.7-.66-3.33-1.46-4.89-2.39-7.76,1.48-11.35,1.58-18.39.78-5.81-.66-2.41-2.64-2.41-2.64ZM84.61,102.59c-13.66,2.57-30.51,2.27-40.49.62,0-.02,2.05,1.68,12.56,2.36,16,1.02,40.57-.57,41.14-8.14,0,0-1.11,2.86-13.22,5.15h0ZM77.04,78.26c-10.27,1.98-16.23,1.93-23.74,1.15-5.81-.61-2.01-3.42-2.01-3.42-15.06,5,8.36,10.65,29.41,4.49-1.36-.48-2.61-1.24-3.66-2.22Z"/>
  </g>
</svg>