<?xml version="1.0" encoding="UTF-8"?>
<svg id="Capa_2" data-name="Capa 2" xmlns="http://www.w3.org/2000/svg" xmlns:xlink="http://www.w3.org/1999/xlink" viewBox="0 0 161.27 161.27">
  <defs>
    <style>
      .cls-1 {
        fill: url(#Degradado_sin_nombre_128);
      }

      .cls-2 {
        fill: none;
        stroke: #fff;
        stroke-miterlimit: 10;
        stroke-width: 3.57px;
      }
    </style>
    <radialGradient id="Degradado_sin_nombre_128" data-name="Degradado sin nombre 128" cx="80.63" cy="80.63" fx="80.63" fy="80.63" r="80.63" gradientUnits="userSpaceOnUse">
      <stop offset="0" stop-color="#7342fe"/>
      <stop offset=".37" stop-color="#7241fc" stop-opacity=".99"/>
      <stop offset=".51" stop-color="#6f40f6" stop-opacity=".97"/>
      <stop offset=".6" stop-color="#6a3dec" stop-opacity=".92"/>
      <stop offset=".68" stop-color="#6339de" stop-opacity=".85"/>
      <stop offset=".75" stop-color="#5934cc" stop-opacity=".77"/>
      <stop offset=".81" stop-color="#4e2eb5" stop-opacity=".66"/>
      <stop offset=".86" stop-color="#40279a" stop-opacity=".53"/>
      <stop offset=".91" stop-color="#301f7a" stop-opacity=".38"/>
      <stop offset=".95" stop-color="#1d1556" stop-opacity=".21"/>
      <stop offset=".99" stop-color="#0a0b2f" stop-opacity=".03"/>
      <stop offset="1" stop-color="#070a29" stop-opacity="0"/>
    </radialGradient>
  </defs>
  <g id="Capa_3" data-name="Capa 3">
    <circle class="cls-1" cx="80.63" cy="80.63" r="80.63"/>
    <path class="cls-2" d="M63.65,113.89h-15.46v-51.54h15.46v51.54ZM120.34,113.89h-15.46v-27.53c0-7.17-2.56-10.75-7.62-10.75-4.02,0-6.56,2-7.84,6v32.28h-15.46s.21-46.39,0-51.54h12.21l.94,10.31h.32c3.17-5.15,8.24-8.65,15.18-8.65,5.28,0,9.56,1.47,12.82,5.16,3.28,3.7,4.92,8.65,4.92,15.62v29.11Z"/>
    <ellipse class="cls-2" cx="55.91" cy="49.46" rx="7.99" ry="7.73"/>
  </g>
</svg>