<?xml version="1.0" encoding="UTF-8"?>
<svg id="Capa_2" data-name="Capa 2" xmlns="http://www.w3.org/2000/svg" viewBox="0 0 136.89 136.89">
  <defs>
    <style>
      .cls-1 {
        fill: #fff;
      }

      .cls-2 {
        fill: #787cb5;
      }
    </style>
  </defs>
  <g id="Capa_5" data-name="Capa 5">
    <circle class="cls-2" cx="68.44" cy="68.45" r="68.45"/>
    <path class="cls-1" d="M68.44,42.92c28.88,0,51.09,12.17,51.09,25.53s-22.22,25.53-51.09,25.53-51.09-12.17-51.09-25.53,22.22-25.53,51.09-25.53M68.44,40.09c-29.77,0-53.92,12.69-53.92,28.36s24.15,28.36,53.92,28.36,53.92-12.69,53.92-28.36-24.15-28.36-53.92-28.36ZM51.29,66.17c-1.33,6.82-6.03,6.12-11.81,6.12l2.31-11.9c6.4,0,10.75-.69,9.5,5.78h0ZM30.94,84.33h6.18l1.47-7.55c6.93,0,11.22.51,15.2-3.22,4.4-4.04,5.54-11.24,2.41-14.84-1.63-1.89-4.26-2.81-7.84-2.81h-11.91l-5.51,28.43ZM62.23,48.34h6.15l-1.47,7.55c5.31,0,10.23-.39,12.6,1.8,2.49,2.29,1.3,5.22-1.4,19.06h-6.23c2.59-13.38,3.08-14.49,2.14-15.5-.91-.98-2.98-.78-7.99-.78l-3.17,16.28h-6.15l5.51-28.41h0ZM99.62,66.17c-1.35,6.93-6.18,6.12-11.81,6.12l2.31-11.9c6.44,0,10.75-.69,9.5,5.78h0ZM79.26,84.33h6.2l1.47-7.55c7.28,0,11.31.42,15.2-3.22,4.4-4.04,5.54-11.24,2.41-14.84-1.63-1.89-4.26-2.81-7.84-2.81h-11.91l-5.53,28.43Z"/>
  </g>
</svg>