<?xml version="1.0" encoding="UTF-8"?>
<svg id="Capa_1" xmlns="http://www.w3.org/2000/svg" version="1.1" viewBox="0 0 1000 1080">
  <!-- Generator: Adobe Illustrator 29.4.0, SVG Export Plug-In . SVG Version: 2.1.0 Build 152)  -->
  <defs>
    <style>
      .st0 {
        fill: #f5efe3;
      }

      .st1 {
        fill: #4a494a;
      }

      .st2 {
        fill: #aa6c49;
      }

      .st3 {
        fill: #fff;
      }

      .st4 {
        fill: #666da3;
      }

      .st5 {
        fill: #db977d;
      }

      .st6 {
        fill: #616160;
      }

      .st7 {
        fill: #474746;
      }

      .st8 {
        fill: #f4d0bf;
      }

      .st9 {
        fill: #f2c0c1;
      }

      .st10 {
        fill: #342013;
      }

      .st11 {
        fill: #1d1d1b;
      }

      .st12 {
        fill: #888989;
      }

      .st13 {
        fill: #736766;
      }

      .st14 {
        fill: #383c8b;
      }

      .st15 {
        fill: #917544;
      }

      .st16 {
        fill: #e2cba1;
      }

      .st17 {
        fill: #1f0f0a;
      }

      .st18 {
        fill: #fffbf4;
      }

      .st19 {
        fill: #d3c9c6;
      }
    </style>
  </defs>
  <g id="cara">
    <path class="st8" d="M356.9,97.1c-97.1-.6-143.4,132.6-96.1,178,2,16.8-.6,34.3-8,41.8s-28,14.5-28,14.5c0,0,5.8,30,36.2,43.3,30.3,13.2,68,7.7,80.8-12.2,5.7-8.8-.6-26.3-.6-26.3l-9.1-2.8,4.7-13.8s33.2,8.6,60-16.4c26.7-25,37.2-73.8,37.2-73.8,0,0,66.1-131.5-76.9-132.3h0Z"/>
    <ellipse class="st9" cx="299.2" cy="239.1" rx="24.6" ry="16.6"/>
    <path class="st9" d="M431.8,243.6c-.6.2-1.2.4-1.9.6-9.7,2.7-19-.5-20.8-7s4.6-14,14.3-16.6c3.8-1,7.4-1.2,10.7-.6-2.2,3.4-2.6,13.3-2.3,23.7h0Z"/>
  </g>
  <g id="cabello">
    <path class="st10" d="M445.2,275.6c-3.4,2.9-13.4-9.6-13.5-24.9s4.4-38.1,8.6-54.9,12.5-89.4-59.8-60.1c-47.1-28.3-70-2.8-81.3,13.4-19,27.4-1.4,46-6.9,78-4.6,26.9-28.1,40.8-44.8,57.6-20.4,20.6-7.9,42.1-12.2,45-2.5,1.7-25.4-25.5-16-58.3,24-9.5,30.2-14.9,40.1-30.7,9.8-15.8,20.1-49.9,5-72.4-13-19.3-29.4-18.3-29.4-18.3,0,0,16-36.9,51.1-65.6,41.4-33.9,144.7-54.5,151.9,5.9,28.6,18.7,37,42.1,27.8,83.9-9.3,41.9-16.6,45.2-20.6,78.2-2,16.6,2.2,21.4.2,23.1h0Z"/>
    <path class="st10" d="M356.7,32.5S286.3.4,240.4,23.3c-29.8-16.1-55.2-20.2-88.8,4.9-27.4,20.5-17.8,60.4-27.3,76.7-9.5,16.3-13.1,15.9-11.8,18.6s16.1-1.9,21.8-7.1c-14.2,23.7-14.7,74.1-4.1,77,2.3.6.9-11.4,16.7-26.8,0,0,10.5,18.3,11.8,31.9s-1.9,12.9-.5,16.2c1.4,3.3,10.1-5.3,15.5-12.2,3.5-9.3,5-10.3,5-10.3,0,0,12.8-30.9,36.8-37.9,1.6-13.5,21.5-111.2,141.2-121.6h0Z"/>
    <path class="st19" d="M214.7,153.6s-27.9,9.8-38.9,49.3,6.6,62.7,28.3,68.4c21.8,5.7,58.7-16.3,66.4-58.1,6.3-34-9.5-59.2-35.7-63.1,22.6-45.2,59.1-81.8,105.3-92,47.8-10.6,67.1-2.9,67.1-2.9,0,0-8.2-22.2-50.5-22.7s-88.9,23.5-115,59.8c-26.2,36.3-27,61.2-27,61.2h0Z"/>
  </g>
  <path class="st0" d="M224,331.5s-47.4,4.2-90.9,31.3c-43.5,27.1-61.3,67.7-74.7,106.4-13.4,38.8-34.3,128.1-37.7,194.2,4.2-23.8,58.5-34.3,103.9-36.6,45.4-2.3,78.3,16.1,78.3,16.1l1.6,65.2s52.5-93.7,97.1-149.7c44.6-56,66.4-73.4,82.8-77.4s44.3-10.8,59.8-9.4,24.2,1.7,24.2,1.7c0,0-7.8-57.9-46.4-92.9-30.1-27.3-65.3-40.3-80.4-43,3.4,13.2,12.3,40.2-44.1,44.4-56.4,4.2-73.4-50.2-73.4-50.2h0Z"/>
  <path class="st0" d="M423.8,517s-11.1,4.1-21.5,5.8c-11.9,2-22.4,14.5-26.5,29,25.7-11.7,58.4-28.5,58.4-28.5l-10.4-6.4Z"/>
  <polygon class="st0" points="440.9 509.1 447.1 517 453 513.6 440.9 509.1"/>
  <path class="st0" d="M115.2,833.8l-41.8,34.7s-20.2-73.4-20.2-185.4c11.7-.8,17.8-1.8,17.8-1.8,0,0,11.7,99.1,44.2,152.5Z"/>
  <path class="st15" d="M66.5,632.4s-50.2,11.4-45.2,37.4c3.8,20,49.5,10.9,49.5,10.9l-4.3-48.4h0Z"/>
  <path class="st8" d="M67.1,632.8s8.3,246.2,114.6,254.7c91,7.3,159.5-263,171.8-283.7-23.7,5.9-16.6-30.3-16.6-30.3l37.9-19.9s8-22.3,19.4-27.9c11.4-5.6,29.7-9.2,29.7-9.2,0,0,6,2.8,11.3,8.4s9.5,8.4,12.4,7.1,3.7-13.5-7.5-23.7c16.2,3.1,22,13.9,29.3,17.3,7.3,3.4,9.6-3.1,8.4-9.5,12.1,6.5,9.9-4.3,8-8.3s-4.9-7.5-4.9-7.5l31.2-15.9s8-1.9,11.5,1.4c3.5,3.3,6.9,20.7,16.2,18.7s2.5-17.5.9-21.3c-1.6-3.8-6.5-10.5-3.1-14.4,3.5-3.9,11-3.7,11-3.7,0,0,15.3,10.1,20,16.2,4.7,6.1,10.2,16.3,16.7,14.6s-1.7-13-4.5-18.3-10.4-16.2-10.4-16.2c0,0,14.3.1,22.1,6.2,7.8,6.1,12.8,14.3,20,13,4.8-.9,4.2-5,4.2-5l-19.3-19.8s12.8-.2,15.8-3.2c3-3.1,4.7-4.4,2.9-6.7-1.8-2.3-39.5-2.7-55.9,0s-52.2,7.5-67.2,25.9c0,0-22.1,2.1-40.7.9-18.6-1.3-59-2-86.8,18.8-52.2,39.1-111.7,133.9-137.7,176.1-12.9,20.9-22.7,40.3-22.7,40.3l-2.2-64.8s-33.9-30.8-135.8-10.1h0Z"/>
  <path class="st5" d="M441.7,485.9c2.8,0,6.7,1.5,9.5,5,2.3,2.9,20.5,9.8,24.5,22.3-.4-8.2-8.9-15.5-14.4-18.2s-3.1-7.9-.6-7.2c-5.7-1.3-13.5-4.8-18.9-1.9h0Z"/>
  <path class="st5" d="M440.1,508.4c-3.4-1.2-8.5-8.8-13.3-9.4,5.7-2.3,23.2,8.9,30.6,15.8-14.4-4.4-17.3-6.4-17.3-6.4h0Z"/>
  <path d="M73.6,868.2l43-34.2s28.9,58.2,70.1,55.3c41.2-2.8,76.8-46.5,139-207.2,70.6-43.4,130.5-78.3,130.5-78.3l193.9,1.8s5,.2,10.9-4.9,12.8-10.2,12.8-10.2l132.7-64.1s32.6,14.9,40.1,35c22.7,61.6,1.1,153-32.5,254.9s-83.5,217.1-83.5,217.1h-99.3l-1.1,3.2h-176.5s38.9-131.5,67.1-201.7c-55.9,98.7-134.3,224-266.4,224s-180.6-190.6-180.6-190.6h0Z"/>
  <path class="st11" d="M453.6,1036.5s-13.9,32.4,0,34.5c13.9,2.1,250.6,0,250.6,0,0,0-10.5-36.8-74-34.5-63.5,2.3-176.5,0-176.5,0h0Z"/>
  <path class="st11" d="M705.6,1068.9l80.8-1.9s-3.4-31.9-57.4-34.7c-54.1-2.7-97.5.5-97.5.5l-2,3.6s62.6-1.9,76.2,32.5h0Z"/>
  <path class="st3" d="M447.9,1060.3s-3,7.4,5.6,10.7,252.9,0,252.9,0c0,0-13.9-33-58.4-34.2-3.5,10.4,3.2,21.3,3.2,21.3l-203.3,2.2Z"/>
  <path class="st3" d="M704.8,1067h82.3s-11.8-32.4-53.5-33.8c2,13.4,10,21.7,10,21.7l-45.3,3.9,6.5,8.2h0Z"/>
  <path class="st14" d="M23.6,635.2s5-43.9,7.1-50.4c62.7-33.1,129.4-27.6,172.4-6.4,1,8.8,1.3,47.1,1.3,47.1-26.9-25.6-110.3-44.3-180.8,9.7h0Z"/>
  <path class="st6" d="M670.7,592.6c7.9-.6,188.4-92.9,188.4-92.9l128.5-281.2s4.3-9.2-5.3-8.9c-3.1,0-193.6,100.3-193.6,100.3l-124.2,274.5s-2.1,8.9,6.3,8.3h0Z"/>
  <path class="st12" d="M669.2,593.9s-12.4,11.8-20.7,11.8h-302.7s-8.2-.2-8.3-9.6-.5-24.2-.5-24.2l97.2-49.6s9,12.3,13.5,10.4c4.4-1.9,2.3-10.3-1.4-16.1,4-2.2,7.9-3.5,7.9-3.5,0,0,4.8,2.9,10.6,10.1s14.7,2.8,13.6-6.5c7.3,2.3,10.7-.9,7.9-7.6-2.7-6.7-4.8-8.9-4.8-8.9l31-15.9h8s5.2,2,8.3,10.7c3.3,9.3,8.2,11,11.1,9.9s7.6-10,.5-21.1h31.2s5.8,14.5,13.1,12.9,0-12.9,0-12.9h124l-44.1,99.5s-4.8,6.7,4.3,10.5h0Z"/>
  <path class="st17" d="M260.9,164.6s-7-63.9,56-98.8c-36.8,13.4-63,48.8-63,48.8,0,0-14.5,16.3-18.2,35.7,14.7-1.1,25.2,14.3,25.2,14.3h0Z"/>
  <path class="st17" d="M237.2,262.5c-4.8,5.5-17,31.5-1.4,66.6-3.5,1.5-12.9-15.3-12.9-15.3,0,0-14-22.8-2.1-45.5,9.8-3.5,16.4-5.8,16.4-5.8h0Z"/>
  <path class="st17" d="M445.7,274.4s-10.9-14.7-7.9-40.4,34.4-82.2-3.8-98.3c10.1,28.9,9.2,58.2,4.3,68.6s-11.4,38.3-3.1,55.8,10.5,14.2,10.5,14.2h0Z"/>
  <path class="st17" d="M174.1,17.4c-20.7,12.6-31.2,67,7,79.7-16.7,22.8-20.7,68.3-3.5,92.3-3.6,15.5-15.1,25.4-18.1,25.1s.9-5.7-.6-14.4-10.7-34.7-10.7-34.7c0,0-15.2,7.7-17.7,28.8-1.1,1.3-4.9-6.4-4.9-6.4,0,0-6-38.5,6.2-69.7-2,1.2-20.7,10.4-19.4,5.2,2.2-8.3,16.8-21.1,16.3-36.2-1.1-33.2,16.8-61.5,45.2-69.9h0Z"/>
  <path class="st17" d="M183.3,95.4c-7.5,18,1.2,47.1,39.1,30.6-2.6,13.9-6.8,28.1-6.8,28.1,0,0-23.1,7.5-36.8,37.9-14.2-17-22.7-69.4,4.6-96.6Z"/>
  <path class="st17" d="M324,119.2c21.7-8.3,42.9-3.2,57.4,12.8,19.2-13.5,37.2-16.8,51.1-9.9-16.4-16.2-44.2-8.8-44.2-8.8,0,0,21.2-18.9,47.1-5.9-30.7-24.4-54.3-10.9-54.3-10.9,0,0,7.6-10.8,18.3-12.2-18.3-1.3-23.6,12.2-23.6,12.2,0,0-4.8-16.4-27.1-20,14.1,8.2,17,17,17,17,0,0-23.6-17-57-2.7,36-3.2,54.5,17.2,54.5,17.2,0,0-19.6-5.3-39.3,11.2h0Z"/>
  <path class="st5" d="M330.5,335.2s-10.5,28.2-25.2,43.4c29.7-1.5,38.2-18.9,38.5-21.7s-1.5-19.4-1.5-19.4l-11.8-2.3Z"/>
  <path class="st5" d="M253.9,317.5c4-4.6,56.7-14,78.7,13.9l4-11.8s-36-5.6-74.5-40.2c.3,20.8-8.2,38.1-8.2,38.1h0Z"/>
  <path class="st5" d="M289.8,196.6c9.2-29.7,38.1-70,71.9-70.1-15.7-4-32.2-10.8-57.3,11.8-25.1,22.6-14.6,58.4-14.6,58.4h0Z"/>
  <path class="st5" d="M300.9,306.5s-26.5-24-21.7-52.2c-13.1,13.4-20.5,20.4-20.5,20.4,0,0,28.3,25.4,42.1,31.8h0Z"/>
  <path class="st5" d="M385.2,236c-9.5,2.7-16.6,10.9-16.6,10.9,0,0,12,4.7,24.5.9-.9-10.4-8-11.8-8-11.8h0Z"/>
  <path class="st5" d="M72.6,692.7c11.6-16.7,82.9-42.8,131.2-14l1.2-35.4s-62.2-35.7-137.9-8.2c1.9,25.9,5.5,57.6,5.5,57.6h0Z"/>
  <path class="st5" d="M545.9,464.5s21.7-11.7,51.8-9.7c14.8,13.1,19.2,22.8,19.2,22.8,0,0-5.8,5.3-11.5,2-5.7-3.4-10.1-12.6-16.4-14.2s-19.2-3.4-19.2-3.4c0,0,19.9,25.5,18.1,30.9s-8.1,5.4-9.9,2.1c-1.8-3.3-13.8-23.4-32.1-30.5h0Z"/>
  <path class="st5" d="M517.7,483.3s-13-14.3-1.8-26.2c-20.2,11.6-24.1,13.6-24.1,13.6,0,0,11.3-1.2,11.8-.5,1.6,2.6-1,12.1-17.9,13.6-16.8,1.5-21.5,3.8-21.5,3.8,0,0,14.5,5.5,17,12.6,10.2-5.2,36.5-16.9,36.5-16.9h0Z"/>
  <path class="st5" d="M109.5,814.9c18.8,27.9,61.8,55.4,90.2,47.5s105.3-139.6,114.1-155.9c-16.4,49.2-67.3,183.3-126.9,183.2-59.6-.1-77.3-74.8-77.3-74.8h0Z"/>
  <path class="st18" d="M312.1,380.3s3,49.5,35.8,125.7c23.6-24.5,19.4-18.5,44-26.5,28.6-9.3,76.4-6.2,76.4-6.2,0,0-13.1-52.9-31.2-72.9-18.1-20-52.9-54.6-96.1-64.1,7.7,16.4,2.1,38-29,44h0Z"/>
  <path class="st16" d="M423.3,516.6s-23.4,7.3-29.8,9.5-16.4,19-18.1,26.2c15.3-7.8,57.7-29.5,57.7-29.5l-9.8-6.2h0Z"/>
  <path class="st16" d="M440.9,508.5s5.7,5.5,6,9.2c3.7-2.8,6-4.1,6-4.1l-12.1-5.1h0Z"/>
  <path class="st16" d="M70.8,681.3l-18.6,1.8s.7,127.5,21.4,185.1c26.7-21.3,43.7-33.9,43.7-33.9,0,0-33.4-53.1-46.5-153h0Z"/>
  <polygon class="st16" points="352.7 605.3 325.4 683.4 451.5 605.7 352.7 605.3"/>
  <path class="st6" d="M596.8,495.4l-96.5,55.6c-2.7,1.5-1.6,5.6,1.5,5.6h143c.4,0,.9,0,1.3-.3l38-17.6c.7-.3,1.2-.9,1.5-1.5l15.6-35.9c.8-2-.6-4.2-2.7-4.2l-100.1-2.2c-.5,0-1.1.1-1.6.4h0Z"/>
  <path class="st7" d="M730.4,564.3l130.2-65.3,123.4-272.7c-70.2,145.5-148.7,272-253.6,338Z"/>
  <polygon class="st6" points="337 583.3 650.1 605.5 338 603.8 337 583.3"/>
  <path class="st1" d="M687.5,504.4h12.2c0,.1,0,.1,0,.1.9,0,1.6-.7,1.6-1.6,0-.9-.7-1.6-1.6-1.6l-104.5-1.2h0c-.2,0-.4,0-.5.1-.4-.1-.8,0-1.2.1l-83.4,48c-.3.2-.5.4-.6.7,0,0,0,0,0,0,0,.1,0,.3-.1.4,0,0,0,0,0,.2s0,0,0,0c0,.1,0,.2,0,.3s0,.2.1.3c0,0,0,0,0,0,0,0,0,0,0,0,.1.2.2.3.4.4,0,0,.1,0,.2.1.2.1.5.2.7.2l129.1,1.2h0c.3,0,.6-.1.9-.3.2,0,.3,0,.4-.1l29.2-15c.3,0,.5-.2.8-.4l15.6-8h2s0,0,0,0c.9,0,1.6-.7,1.6-1.6,0,0,0-.2,0-.3l1.4-.7c.8-.4,1.1-1.4.7-2.2s-1.4-1.1-2.2-.7l-4.3,2.2h-14.5c0-.1,9.8-5.8,9.8-5.8h10.4c0,.1,0,.1,0,.1.9,0,1.6-.7,1.6-1.6,0-.9-.7-1.6-1.6-1.6h-5s7.8-4.6,7.8-4.6c.4,0,.7-.2.9-.5l3.7-2.1c.8-.5,1-1.4.6-2.2-.5-.8-1.4-1-2.2-.6l-3.9,2.3h-13.4c0-.1,7-4.3,7-4.3.1,0,.2-.2.3-.3h0ZM653.3,542.4c-.2-.1-.4-.2-.7-.2h-9.8c0,0,8.6-5.1,8.6-5.1h12c0,.1-10,5.3-10,5.3h0ZM639.8,549.3s0,0,0,0h-9.3c0,0,6.8-4.1,6.8-4.1h10.2c0,0-7.7,4-7.7,4ZM613,549.1l6.6-4h11.4c0,.1-6.8,4.1-6.8,4.1h-11.2ZM582.6,548.8l6.5-4h9.3c0,0-6.3,3.9-6.3,3.9,0,0,0,0-.2.1h-9.4ZM567.2,548.7l6.5-4h9.3c0,0-5.9,3.7-5.9,3.7-.2.1-.3.2-.4.4h-9.4ZM551.4,548.5l6.3-4h10c0,0-6.4,4-6.4,4h0c0,0-9.8,0-9.8,0h0ZM535.5,548.4l6.4-4h9.8c0,0-5.8,3.7-5.8,3.7-.2,0-.3.2-.4.4h-10.1ZM516.8,548.2l6.9-4h12.2c0,.1-6.4,4.1-6.4,4.1h-12.7q0-.1,0-.1ZM537.9,536c0,0,.2,0,.3,0h10.9c0,0-8,5.1-8,5.1h-11.8c0-.1,8.7-5.1,8.7-5.1h0ZM552.5,527.6h10.2c0,0-8.5,5.4-8.5,5.4h-10.8c0,0,9.1-5.4,9.1-5.4h0ZM568.3,518.5c.2,0,.4.1.6.1h8.3c0,0-9.3,5.9-9.3,5.9h-9.8c0,0,10.3-6,10.3-6h0ZM581.5,510.9c0,0,.2,0,.3,0h7.8c0,0-7.3,4.6-7.3,4.6h-8.7c0,0,8-4.7,8-4.7h0ZM607.9,503.5h9c0,.1-7.1,4.6-7.1,4.6h-9c0-.1,6.9-4.4,6.9-4.4,0,0,.1-.1.2-.2h0ZM634.4,503.8l-7.3,4.5h-11.4c0-.1,7.1-4.6,7.1-4.6h11.5c0,.1,0,.1,0,.1ZM650.4,503.9l-7.4,4.5h-9.9c0-.1,7.3-4.6,7.3-4.6h9.9ZM603.7,541.8h-9.3c0,0,8.2-5.1,8.2-5.1h9.3c0,0-8.2,5.1-8.2,5.1h0ZM618,536.8h9c0,0-8.3,5.1-8.3,5.1h-8.9c0,0,8.2-5.1,8.2-5.1ZM609.4,519.1l-9.4,5.8h-10.7c0,0,9.2-5.9,9.2-5.9h11c0,.1,0,.1,0,.1ZM603.5,515.8l7.2-4.5h11.2c0,.1-7.4,4.6-7.4,4.6h-11.1c0-.1,0-.1,0-.1ZM586.2,533.3h-10.4c0,0,8.4-5.4,8.4-5.4h10.6c0,0-8.6,5.4-8.6,5.4h0ZM600.9,528.1h9.6c0,0-8.7,5.4-8.7,5.4h-9.5c0,0,8.6-5.4,8.6-5.4h0ZM583.3,524.7h-9.4c0,0,9.3-5.9,9.3-5.9h9.3c0,0-9.2,5.9-9.2,5.9h0ZM578.2,527.9l-8.4,5.3h-9.6c0,0,8.5-5.4,8.5-5.4h9.5q0,0,0,0ZM564.7,536.3l-7.9,5h-9.8c0,0,8-5.1,8-5.1h9.7c0,0,0,0,0,0ZM570.7,536.4h10.3c0,0-8.1,5.1-8.1,5.1h-10.1c0,0,7.9-5.1,7.9-5.1h0ZM587.1,536.5h9.4c0,0-8.2,5.1-8.2,5.1h-9.3c0,0,8.1-5.1,8.1-5.1h0ZM607.8,533.5l8.7-5.3h9.3c0,0-8.7,5.4-8.7,5.4h-9.3q0,0,0,0ZM621.8,525l9.5-5.7h9.2c0,0-9.4,5.8-9.4,5.8h-9.3c0,0,0,0,0,0ZM615.7,525h-9.6c0,0,9.4-5.8,9.4-5.8h9.7c0,0-9.5,5.8-9.5,5.8h0ZM620.6,516l7.4-4.5h9.8c0,.1-7.4,4.6-7.4,4.6h-9.8ZM604.7,511.2l-7.2,4.5h-9.2c0,0,7.3-4.6,7.3-4.6h9.1c0,.1,0,.1,0,.1ZM604.6,545h8.8c0,0-5.7,3.5-5.7,3.5-.2.1-.4.3-.5.5h-9.1c0,0,6.5-4.1,6.5-4.1h0ZM636.4,542.1h-11.5c0-.1,8.3-5.1,8.3-5.1h11.8c0,.1-8.6,5.1-8.6,5.1h0ZM638.5,533.8l8.8-5.3h12.3c0,.1-9.1,5.4-9.1,5.4h-12c0-.1,0-.1,0-.1ZM632.3,533.7h-9.1c0,0,8.7-5.4,8.7-5.4h9.2c0,0-8.8,5.4-8.8,5.4ZM637.2,525.2l9.4-5.7h9.4c0,0-9.5,5.8-9.5,5.8h-9.2q0,0,0,0ZM651.8,516.3l7.4-4.5h9.5c0,.1-7.5,4.6-7.5,4.6h-9.4c0,0,0,0,0,0ZM645.7,516.2h-9.2c0,0,7.4-4.6,7.4-4.6h9.2c0,.1-7.4,4.6-7.4,4.6ZM649.2,508.5l7.4-4.5h9.2c0,.1-7.4,4.6-7.4,4.6h-9.2ZM594.8,503.3c0,0,.2,0,.3,0h6.8c0,0-7.2,4.6-7.2,4.6h-7.8c0,0,7.9-4.6,7.9-4.6ZM679.8,528.8l-10.3,5.3h-12.7c0-.1,9.1-5.4,9.1-5.4h13.8c0,.1,0,.1,0,.1ZM665.1,525.5h-12.5c0-.1,9.5-5.8,9.5-5.8h12.8c0,.1-9.8,5.8-9.8,5.8h0ZM688.1,512.1l-7.7,4.5h-13c0-.1,7.5-4.6,7.5-4.6h13.2ZM664.4,508.6l7.2-4.4s0,0,0,0h9.7c0,.1-7.5,4.6-7.5,4.6h-9.6c0-.1,0-.1,0-.1Z"/>
  <path class="st13" d="M227.5,153.8l-.7,7.8c-27.2,13.8-37.1,86.2,13.3,80.7-5.6,4.5-2.2,22.3,10.8,17.9-19.6,11-45.3,15-62.1-12.4-16.8-27.5,5.6-84.6,38.6-93.9Z"/>
  <path class="st13" d="M245.4,87.5s-11.6,22.5,3.7,33.3c-13.8,22.2-20.1,46.7-22.1,48.1s-6.1,6.8-10.4-2.1,2-53.7,28.8-79.4h0Z"/>
  <path class="st6" d="M525,487.7s-54.7,56.6-20.4,86.9h-167.5l4-5.8,92.6-46.3s9.7,10.8,12.9,9.6,5.8-4.7,3.6-8.6c-2.1-3.9-2.8-6.6-2.8-6.6l5.7-3.2s6.1,2,9.2,6.6c3,4.6,10.2,6.7,13.1,4.8s2.5-8.9,2.5-8.9c0,0,3.6,4.2,7.6.9s-1.6-11.6-5-16.9c10.8-5.9,32.4-16,32.4-16,0,0,9.4-1,10.8,1.4l1.3,2.3h0Z"/>
  <path class="st16" d="M201.1,541s1.9,161.8,4,166.7c9.8-18.3,64.8-105.3,64.8-105.3,0,0-50,15.2-68.8-61.3h0Z"/>
  <path class="st2" d="M356.7,32.5s-67.9-33.5-122.2-2.5c48.6-6.6,68.2,14.1,68.2,14.1,0,0,22.7-13.8,54-11.6h0Z"/>
  <path class="st2" d="M242.6,24.5s-20.1-21.9-66.8-9c26.2,7.4,32.4,30.1,33.4,46.3,15.5-26.3,33.4-37.2,33.4-37.2h0Z"/>
  <path class="st2" d="M372.1,51.9c-9.1,0,42.1,10.9,37.4,35.3,17.4-1.2,28.6,4.2,28.6,4.2,0,0,5.5-39.3-66-39.5Z"/>
  <path class="st3" d="M302.7,44.1s30.8-20.6,76.3-8.8c22.8,5.9,28.2,20,28.2,20,0,0-51.4-13.1-89.2,7.5,2.2-17.6-15.3-18.7-15.3-18.7h0Z"/>
  <path class="st18" d="M224,331.5c-130.3,47.1-143.9,151.1-162.7,302.3-26.8,7.9-34.6,17.4-40.5,27.1,9.1-81.3,31.3-239,101.6-290.7,50.1-36.9,101.6-38.6,101.6-38.6h0Z"/>
  <path class="st4" d="M64,612.1c1.9-14.8,3.8-29.2,5.8-43.1-12.9,3.7-25.8,8.8-38.6,15.5-3,17.9-5.4,35-7.4,50.5,13.1-10,26.6-17.5,40.2-22.9h0Z"/>
  <path class="st12" d="M962.2,234.5l-165.3,85.1-92.3,201.9c70.6-129,149.9-239.1,257.6-287h0Z"/>
  <path class="st11" d="M990.7,215.4c.2-2.3-.7-4.6-2.4-6-2.1-1.7-5-2-7.5-.7l-192.8,99.8h0c-1.2.8-2.2,1.8-2.8,3.2l-76.6,170.9h-122.6c-.8-1.4-1.7-2.8-2.5-4-.7-1.1-1.4-2.2-1.9-3-2-3.5-6.3-9.2-9-12.8,6,1,17.3,3.5,22.2,8.4,1.3,1.3,2.4,2.4,3.4,3.5,4.9,5.2,7.9,8.3,13.3,7.2,6.8-1.4,6.7-5.6,6.6-5.8l-.2-.6c-.1-.3-3.5-6.8-17.7-19.3,9.8,0,15.3-3.3,17.2-6.4.9-1.5,1-3.1.2-4.4-.5-.8-1.7-2.1-4.6-2-5.3.2-9.7,0-14.8-.2-9.9-.4-22.2-.9-46.6,1.8-33.9,3.8-58.8,23-62.2,25.8-6.4.7-14,1.1-19.3,1.1-.4-4.9-3.4-20.7-23.7-61.5-24.1-48.5-96.8-72.8-104.3-75.2h0c0,0-8.5-2.1-8.5-2.1l3.7-11.6c4.1.6,8.3,1,12.5,1s4.2,0,6.3-.3c46.8-3.9,62.5-45.5,72.8-73.1.2-.6.5-1.2.7-1.8.8,12.1,4.7,21.9,11.5,29.2.7.8,1.7,1.2,2.7,1.2s1.3-.2,1.9-.5c1.5-.9,2.2-2.5,1.7-4.1-3.4-11.7-1.1-32,6.5-55.7.8-2.5,1.7-5.3,2.7-8.2,9.7-29,25.9-77.4-2-107.6-4.7-5.1-10-8.8-15.3-11.4.6-25.1-26.2-34.3-30.9-35.7-4.3-9.1-13.4-15.9-26.2-19.7-7-2.1-14.6-3.2-22.6-3.4-5.5-2.5-70.4-30.2-115.9-10.9-.8.3-1.5.7-2.3,1.1-5.4-3.7-40.1-25.2-78.4-3-28.9,16.7-31.5,37.2-34,57.1-2,15.8-3.9,30.7-17.8,44.4-1.2,1.2-1.4,2.9-.6,4.3.6,1.2,1.8,1.8,3.1,1.8s.6,0,.8,0c6.4-1.5,11.6-3.6,15.8-5.8-4.3,12.2-14.8,47.6-3.6,73.5.6,1.3,1.9,2,3.3,1.9,1.4-.2,2.5-1.2,2.7-2.6,1.8-11.3,10.2-20.7,13.6-24.1,3.7,6.7,16,30.5,10.3,42.9-.6,1.3-.3,2.9.7,3.8.6.6,1.4.9,2.2.9s1.1-.1,1.6-.4c5-2.8,8.6-6,11.2-9.2-1.5,6.9-2.1,13.9-1.7,20.9,1.1,17.2,8.4,31.5,20.1,39.4,6.3,4.3,13.6,6.4,21.3,6.4s3.4-.1,5.1-.4c-6.8,25.5,6.1,45.6,12.7,54.4-3.3,1.3-5.6,2.1-6.3,2.3-4.4.4-104.1,9.7-147,90.6-43.4,81.8-58.1,240.5-58.2,242.1,0,.3-.8,8.4,6.2,14.9,5.5,5,13.9,7.6,25.3,7.6s1.1,0,1.7,0c0,13.5.7,109.1,20.4,183.9.6,3.5,30.2,179.3,164.2,193.1,6.8.7,13.5,1,20.1,1,115.2,0,196-104.4,255.2-208.1-16.6,41.2-30.4,83.6-42.4,126.3-10.5,32.3-16.8,53.7-17.1,54.7-1.2,2.9-10.2,26.1-4.6,34.4,1.4,2,3.5,3.1,6.1,3.1l258.6-.6-.8-2.1c0,0,0-.2-.1-.3h83.2l-1.1-2.3c-.2-.4-17.2-35.2-58.8-36.6,16.1-36.3,185.3-424.8,98.5-490.7-6.9-5.2-14.3-9.8-22.2-13.6l48-23.1c2.9-1.4,5.2-3.8,6.5-6.7l123.8-277.8c1-1.1,1.6-2.5,1.8-4.1h0ZM982.2,211.6c1.3-.7,2.9-.6,4,.3.9.8,1.4,1.9,1.3,3.2-.2,1.4-1,2.7-2.3,3.4l-186.9,96.3c0-1.4-.4-2.8-1.1-4-.6-.9-1.4-1.6-2.2-2.2l187.3-97h0ZM788.1,313c.6-1.4,1.9-2.3,3.3-2.3h0c1.2,0,2.3.6,3,1.7.8,1.2.9,2.7.3,4.1l-122.1,272.5c-.6,1.4-1.9,2.3-3.3,2.3-1.2,0-2.3-.6-3-1.7-.8-1.2-.9-2.7-.3-4.1l122.1-272.5ZM68.7,635.2c10-2.4,21.4-4.2,33.8-5.3,65-6,94.6,11.4,99.2,14.4,0,5.3,0,34.2.6,63.2v2.6c-5.3,12.2-10,24.7-14,37.6,16.1-34.1,33.8-67.1,54.1-98.8,16.8-27.1,35.7-52.8,52.8-79.8,33-43.2,67-79.6,88.5-86,40.6-11.9,67.3-9.3,78.7-8.2,1.9.2,3.3.3,4.4.4,7.5.3,29.9-.8,35.1-3.3.2,0,.3-.1.4-.2,0,.3,0,.8-.3,1.7-.8,2.4-3.5,5.6-8.3,7.5-11.2,4.6-39.8,5.4-39.8,5.4,0,0,16.2,3.9,23.8,12.6,8.2,9.4,8.7,15.3,7.1,17-1.1,1.1-3.6.6-5.9-1.4l-3.7-3.1,1.1,4.7c.9,3.9.1,6.9-2,8-2.3,1.1-6.9.1-12.2-6.4-1.7-2.1-7.2-7.4-21.4-10.6l-5.5-1.3,4,4c8.1,8.1,10.1,16.4,8.9,19.5-.4.9-.9,1.3-1.9,1.4-2.4.2-4.7-2.3-7.8-5.4-3.5-3.6-8-8-14.3-10.3l-.6-.2-.6.3c-3.3,1.6-7.7,2.7-12.5,3.9-5.5,1.4-11.1,2.8-16.3,5.2-6.9,3.2-13.8,12.1-21.5,27.9l-35.6,17.8c-1.6.8-2.4,2.4-2.1,4.1h-.1v24.9c0,.3-.2,2.8,1.8,5.1,1.9,2.1,5,3.2,9.2,3.2h4.9c-4.5,12.9-93.6,284.2-165.1,280.4-76.2-4-114.7-170-116.9-252.3h0ZM445.1,511.5c1.9.6,3.5,1.2,5,1.9l-2.8,1.4c-.7-1.1-1.4-2.2-2.3-3.3h0ZM431.2,522.8l-53.8,26.8c6.5-12.5,12.5-20,18.1-22.6,4.9-2.3,10.4-3.7,15.7-5,4.6-1.2,8.9-2.3,12.4-3.8,2.9,1.1,5.4,2.8,7.6,4.6h0ZM339.9,649.1c5-14.9,9.7-28.9,14.3-42.1h90.5c-31.7,18.2-92.6,57.3-114.9,71.7,3.4-10,6.8-20,10-29.7h0ZM347.7,600.8c-3.2,0-5.5-.7-6.8-2-1.1-1.2-1.1-2.6-1-2.8l-1.9-18.7c.3,0,.5.1.8.1h310.2c1,0,2-.1,2.9-.3v26.5c-.8.2-1.5.3-2.3.3l-301.9-3h0ZM655.1,576.1c1.2-.5,2.4-1.1,3.5-1.9l13.3-9.8-8.9,19.8c-1,2.3-.8,5,.5,7.1.8,1.2,1.8,2,3,2.6l-10.2,7.6c-.4.3-.9.6-1.3.8v-26.2h0ZM704.5,488.5l-29.9,69.9s-18.2,12-27.3,12l-303.9,2.2c-.5,0-.7-.4-.8-.6,0-.2,0-.6.4-.9l90.7-45.9c.8.8,1.6,1.6,2.4,2.3,3.5,3.5,6.5,6.5,10.2,6.3,2.2-.1,3.9-1.3,4.7-3.5,1.1-2.9.5-7.6-2.1-12.8l4.9-2.4c3.5,2,5.1,3.7,5.8,4.5,6.5,8,12.6,9,16.1,7.3,2.8-1.4,4.2-4.3,4.2-8.1,2.8,1.2,5.5,1,7.2-.8,2.6-2.7,2.7-8.6-3.9-17.5l28.6-14.2c.6-.3,1.2-.4,1.9-.4h6.2c2.7,1.5,5.1,3.6,6.5,6.5,4.4,9.3,8.6,14,12.6,14.1h.1c2.3,0,4.3-1.5,5.9-4.6,2.3-4.4.7-10.3-1.6-16.1h26.9c.6.9,1.3,1.7,1.9,2.5,4.2,5.8,7.1,9.8,10.9,9.8s1.3-.1,2-.4c2-.7,3.4-2,4-3.8.8-2.4,0-5.3-1.3-8.2l116.8,2.6h0ZM545.8,466.2c2.8,1.4,15.2,7.8,21.7,16,.1.1.2.3.3.4h-25.8c-.2-.4-.3-.9-.5-1.3-1.8-4.4-3.7-8.9-3.2-10.9.3-1.1,3.1-2.6,7.5-4.3h0ZM578.8,477.1c.5.9,1.2,2,2,3.2,2.5,3.9,6.2,9.8,5.2,12.7-.2.5-.6,1.2-2,1.8-2.4.9-4.9-2.2-9.3-8.3-1.4-1.9-2.9-4-4.7-6.3-5.6-7.1-15-12.8-20-15.5,4.7-1.5,10.5-3.1,16.5-4.5l1.1,1.4c0,.1,8.4,10.5,11.2,15.6h0ZM615,476.5c-.3.6-1.3,1.7-4,2.2-3.5.7-5.4-1.1-10.4-6.3-1-1.1-2.2-2.3-3.5-3.6-6.3-6.3-20.9-8.9-26.2-9.7,8.5-1.7,17.3-2.9,24.4-3,13.9,11.7,18.5,18.6,19.5,20.3h0ZM552.2,448.3c24.1-2.7,35.8-2.2,46.1-1.8,5,.2,9.6.4,15,.2,1.1,0,1.6.2,1.7.4.1.2,0,.6-.2,1.1-1.2,2-5.9,5.2-16.3,4.8-17.7-.6-61.1,8.8-63.2,16.6-.9,3.1,1.1,7.7,3.3,13,2.7,6.4,5.8,13.6,3.5,17.8-1,1.9-2,2.8-3.1,2.8-2,0-5.7-3.2-9.8-12.2-6.1-13.4-23.9-9.3-23.9-9.3,0,0,4,0,6.7,1.1-.5.1-1.1.3-1.6.6l-29.2,14.5c-.3-.4-.6-.8-1-1.2-3.6-4.1-7.9-6.7-11.9-8.4,8.3-.5,19.6-1.7,26.6-4.5,6.7-2.7,10.1-7.7,10.6-11.2.3-2.2-.7-3.2-1.3-3.7-.6-.4-1.8-1-3.7,0-.8.4-2.4.8-4.3,1.1,9-6.3,29.7-18.7,56-21.7h0ZM404.4,53.4c-11.8-4-53.4-18.7-104.6,17-59.1,41.2-68.4,82.2-71.3,91.1-2.2,6.8-5.2,7.7-7.3,7.4-2.4-.4-4.9-2.8-4.7-10,0-2.5,2.3-60.6,63.9-100.3,24.2-15.6,52-24.1,76.4-24.1s17,1.1,24.5,3.3c10.8,3.2,18.6,8.6,23,15.6h0ZM237.1,148.7c1.3-2.9,2.8-6,4.6-9.3-.8,3.2-1.4,6.5-1.8,9.8-.9-.2-1.9-.3-2.8-.4ZM220.6,173.8c.3,0,.7,0,1,0,4,0,7.7-4.2,10.1-11.4.1-.5.4-1.1.6-1.6,6,1.2,11.2,4.5,15.1,9.8,6.1,8.5,8.1,21,5.5,34.4-4.9,25.6-23.4,42.4-43.1,43-7.6.2-14.3-2.7-19.2-8.5-7.2-8.4-8.7-18.8-5.9-33.4,3.8-19.6,13.8-35.3,29.1-42.5.8,5.7,3.3,9.5,6.9,10.1h0ZM351.3,31.4c-24.3-.6-51.3,7.9-74.2,22.6-51.8,33.3-60.9,81.4-63.1,98.2-14.8,6.3-28.2,21.3-35.9,37.2-28.6-49.2,14.9-115.5,38.6-124.5,10.7-52,68.9-54.7,134.7-33.5h0ZM159.6,213.2c4.8-26.1-12-53.5-12-53.5,0,0-16.6,15.9-17.8,32.8-12.2-28.4,3.2-70.1,5-74.9,7.3-4.9,7.6-11.7,7.6-11.7,0,.1-7.3,12-28.6,17,0,0-.3,0-.4-.2-.1-.2,0-.4,0-.4,14.7-14.5,16.8-30.7,18.8-46.3,2.5-20,8.8-36.2,36.3-52.1,34-19.7,61.2-5.9,69.5-.7-14.2,7.6-24.4,19.9-30.5,36.4-32.9,28-41.7,58.6-43.2,79.3-1.4,18.6,2.8,37.1,10.8,48.9.3,2.2,1.2,16.2-15.6,25.4h0ZM193.1,260.8c-10.9-7.3-17.8-18.9-18.9-35-1.9-29.4,15.1-58.4,39.4-69.8-.1,1.5-.2,2.4-.2,2.7,0,.5,0,1,0,1.5-16.7,7.3-30.5,26-34.6,47-3,15.5-.2,29.7,7.7,38.9,5.4,6.3,12.6,9.6,20.9,9.6s.6,0,.9,0c21.1-.6,42.5-23.1,47.7-50.1,2.7-14.2.5-27.7-6.1-36.9-4.2-5.9-9.9-9.6-16.6-11,.7-1.8,1.5-3.8,2.4-6,19.3,1.8,33.2,18.8,34.7,42.6,2,31.7-17.7,61.1-44.6,70.1-11.8,4-23.5,2.7-32.8-3.6h0ZM220.6,272.7c1.9-.4,3.9-.9,5.8-1.5,28.2-9.4,49.4-44,47.3-77-1.4-22.5-13.4-39.3-30.6-44.3,1-10,4.2-19.6,9.7-28.6,9.3-13.2,22-27.3,39.3-39.4,58.1-40.8,114.4-24.7,115-24.5l1.5.5c5.8,1.9,27.2,10.2,27.7,30.9-19.9-8.1-39.5.5-39.5.5.3,0,32.2-4.5,54.1,19.1,26.6,28.7,12.4,71.5,2.9,99.8-1,3-1.9,5.8-2.7,8.3-7.8,24.6-9.5,43-5.9,55.5,0,0,0,.3-.2.5-.1,0-.4.2-.6,0-12.7-13.4-13.4-35.2-3.8-66.8,8-26.5,5.2-64.6-13.9-77.2-17.1-11.4-34.3,3.7-34.3,3.7,13-7.5,23.8-7.9,32.3-1.2,16.3,13,19,49.1,11.3,74.8-3.7,12.3-5.8,23.4-6.2,33.2-1.2,2.9-2.3,6-3.6,9.3-10.1,26.8-27.5,65.9-72.2,69.5-45.5,3.8-85.5-34.8-93.1-42.5,26.5-20,40.8-42.4,30.7-90-4.2-19.7,3.8-39.5,20.7-51.7,17-12.3,39-13.8,55.9-3.8,0,0-25-21.5-57.8,1.2-18.2,12.6-30.6,30.4-26.2,51.3,9.9,46.8-.2,72-26.7,91.5-19.2,14.2-26.7,32.3-22.2,54,0,.4-.1.6-.3.7s-.5.1-.7-.2c-9.3-12.1-20.8-31-13.6-55.4h0ZM237.9,324.3c-3-18.7,3.8-34.6,20.3-47.2.6.6,1.5,1.5,2.7,2.6-.6,10.1-3.9,35-12.9,39.8-3.1,1.6-6.5,3.2-10.1,4.8ZM231.9,330.3c.7.8,1.7,1.2,2.8,1.2s1.1-.1,1.6-.4c1.4-.7,2.2-2,2.1-3.6,4-1.7,10.9-4.2,14.2-6,10.5-5.6,10.5-29.9,11.3-39.1,12.1,11,39.1,32.5,70.4,38.4l-2.6,8.3c-2.6,6.4-5.3,12.7-7.6,19.5,3.4-3.6,6.3-8,8.4-12.6l7.7,1.8c1.2,2.9,13.8,37.1-38.3,40.4-54.1,3.4-73.1-37.1-75.9-45.8,1.3-.5,3.4-1.2,6-2.2h0ZM82,425.4c40.2-75.8,129-90.9,140.7-92.1,2.7,8,19.3,50.4,69.5,50.4s5.1-.1,7.8-.3c21.9-1.8,36.1-8.3,42.4-19.3,5.4-9.5,3.3-19.7,1.6-24.8,39.6,16.7,97.4,40.5,123.1,132.7h-.2c-1,0-2.5-.2-4.2-.4-11.6-1.1-38.7-3.8-79.9,8.3-27.2,8-71.6,60.5-110.2,114.7-21.2,28.1-41,57.3-57.2,88.4-3.8,6.6-7.1,12.6-9.9,17.9-.5-29.5-.5-57.1-.5-57.4v-.8l-1.6-164.5c-3.4,60.4-3,131.3-1.6,162.3-8.5-5.1-36.3-22.4-97.3-17.2-53.6,4.6-75.9,23.5-82.1,32.3,3.5-32.2,22-159,59.7-230.1h0ZM26.8,675.1c-3.3-3-4.5-6.5-5-8.9.3-11.7,15.1-21.9,43.7-30.2.4,14,1.4,28.8,3,43.9-25.2,4.5-36.7,0-41.8-4.8ZM68.9,683.1c6.2,54.3,20.4,111.9,43,152.7-19.4,15.2-32.7,26.1-37.5,30-19-74.3-19.7-167.9-19.7-180.9,4.4-.2,9.1-.8,14.2-1.8h0ZM472.5,980.9c26.6-74.1,52.3-148.5,83.8-220.8-12.2,21.9-23.2,44.4-33.3,67.3-63.1,116.4-152.6,237-286.6,223.3-127.3-13.1-158.7-167.9-161.1-181.5,3.2-2.6,17.1-14,38.3-30.6,7.3,12.8,15.6,23.8,24.6,32.3,13.9,13.1,29.2,19.8,45.5,19.8s1.4,0,2.2,0c66-2.4,108.6-108.5,142.4-207,48-31.2,91.9-57,130.5-76.7h191c3.1,0,6.2-1,8.8-2.9l13.8-10.3h0c.5-.2.9-.5,1.4-.8h0l52.4-25.2c42.5,24.1,42.6,72.3,35.1,108.6-16.9,82.1-125,340.3-132.6,358.4h-172.9c1.9-6.2,7.9-26.2,16.9-53.9h0ZM455.7,1067.8c-1.6,0-2.7-.5-3.4-1.6-3.8-5.6-.7-20.7,2.2-28.1h175c56,0,64.7,21.6,68.8,29l-242.5.8h0ZM779.3,1063.7l-69.9,3.3c-5.1-8.9-23.3-31.5-77.6-32.2,0,0,0-.2.1-.3h99.8c35,0,42.8,21.4,47.5,29.1h0ZM830.9,543.3c85.1,64.6-94.2,466.3-103.8,488.1h-93.7c16.7-39.9,119.7-276.4,135.7-354.5,10.8-52.5.8-96.8-39.8-110.7l77.6-37.3c8.5,4,16.6,8.8,24,14.4h0ZM859.1,492.8c-1,2.2-2.7,4-4.9,5.1l-177.4,90,122.5-265,184.7-100.1-124.9,270.1h0Z"/>
  <circle class="st11" cx="330.7" cy="204.3" r="13.7"/>
  <circle class="st11" cx="414.5" cy="194.3" r="12.2"/>
  <path class="st11" d="M327.6,271.1c10.4,9.6,37.7,28.7,69.9,5.1,2.1-1.5.7-4.8-1.8-4.5-22.5,2.9-41.7-3.5-66.1-5-2.4-.1-3.6,2.8-1.9,4.4h0Z"/>
  <path d="M393.2,248.3c-.5-4.3-1.8-9.6-5.6-10.9-4.6-1.5-12.3,2.7-19.7,10.8,0,0,8.5-17.9,20.1-15.9,7.7,1.4,5.2,15.9,5.2,15.9h0Z"/>
  <path class="st3" d="M630,1035.7s110.6-266.3,131.3-347.3c25.8-100.5-35.7-121.5-35.7-121.5,33,2.4,62,47.6,39.7,125.8-23,80.6-131.9,331.2-135.3,343h0Z"/>
  <circle class="st3" cx="324.4" cy="198.9" r="3.6"/>
  <circle class="st3" cx="408.3" cy="189.2" r="2.5"/>
  <path class="st17" d="M310.2,190.1c5.7-14.2,26.6-26.3,39.7-14.2l-.2.6c-4.1.5-7.6.5-11.1.8-10.6-.2-21.4,4.1-27.9,13l-.6-.3h0Z"/>
  <path class="st17" d="M431,180.3c-3.1-2.9-6.3-5.7-10.4-6.9-3.7-1.6-7.5-.4-11.2,0-2.6.2-5.2.6-8.6.7l-.4-.5c3.1-6.5,11-8.6,17.4-6.1,6.4,1.8,10.8,6.7,13.6,12.4l-.5.4h0Z"/>
</svg>