<?xml version="1.0" encoding="UTF-8"?>
<svg id="Capa_2" data-name="Capa 2" xmlns="http://www.w3.org/2000/svg" viewBox="0 0 335.14 413.95">
  <defs>
    <style>
      .cls-1 {
        fill: #7c715e;
      }

      .cls-1, .cls-2, .cls-3, .cls-4, .cls-5, .cls-6, .cls-7, .cls-8, .cls-9, .cls-10, .cls-11, .cls-12 {
        stroke-miterlimit: 10;
      }

      .cls-1, .cls-2, .cls-5, .cls-6, .cls-7, .cls-9, .cls-10, .cls-11 {
        stroke: #1d1d1b;
      }

      .cls-1, .cls-2, .cls-5, .cls-6, .cls-7, .cls-10, .cls-11 {
        stroke-width: 2px;
      }

      .cls-13 {
        fill: #666362;
      }

      .cls-14 {
        fill: #0a0807;
      }

      .cls-15, .cls-9, .cls-12 {
        fill: #e2b0a1;
      }

      .cls-16 {
        fill: #1d1d1b;
      }

      .cls-2 {
        fill: #f5efe3;
      }

      .cls-17 {
        fill: #354d9b;
      }

      .cls-18 {
        fill: #fff;
      }

      .cls-3 {
        stroke: #f5efe3;
        stroke-width: 2.99px;
      }

      .cls-3, .cls-19, .cls-4, .cls-8 {
        fill: none;
      }

      .cls-4 {
        stroke: #f4d2c2;
        stroke-width: 3.26px;
      }

      .cls-5 {
        fill: #c6c6c6;
      }

      .cls-6 {
        fill: #342115;
      }

      .cls-7 {
        fill: #f4d1c0;
      }

      .cls-20 {
        fill: #d3c6ae;
      }

      .cls-21 {
        fill: #db977e;
      }

      .cls-22 {
        fill: #a39795;
      }

      .cls-23 {
        fill: #223365;
      }

      .cls-24 {
        fill: #edddc3;
      }

      .cls-8 {
        stroke: #edddc3;
        stroke-width: 2.01px;
      }

      .cls-25 {
        fill: #1e1e1c;
      }

      .cls-26 {
        fill: #999;
      }

      .cls-10 {
        fill: #f4d2c1;
      }

      .cls-27 {
        fill: #1f0f0b;
      }

      .cls-28 {
        fill: #f4babe;
      }

      .cls-29 {
        fill: #010101;
      }

      .cls-30 {
        fill: #25120f;
      }

      .cls-11 {
        fill: #d3c9c7;
      }

      .cls-12 {
        stroke: #e2b0a1;
        stroke-width: .82px;
      }
    </style>
  </defs>
  <g id="cuerpo">
    <path class="cls-1" d="M99.64,332.54c5.97-7.25-4.58-47.25-4.58-47.25,0,0-16.88,36.58-15.4,43.31s7.44,10.03,10.37,9.94c0,0,4.87-.23,9.61-5.99Z"/>
  </g>
  <g id="kbeioh">
    <path class="cls-14" d="M120.59,139.06s4.33,28.44,15.92,36.35c-3.83-6.25-1.11-6.11-1.07-14s-6.18-29.33-6.18-29.33l-8.67,6.98Z"/>
  </g>
  <g id="cabezaV2">
    <path id="contorno_cara" data-name="contorno cara" class="cls-7" d="M178.37,47.25c-90.14-9.64-57.62,75.76-57.62,75.76,0,0,3.23,30.71,18.32,47.97,15.1,17.26,36.62,14.33,36.62,14.33l2.01,8.81c-2.35.99-4.7,1.97-7.05,2.96,1.48,1.55,1.41,8.5,4.73,10.77,14.2,9.69,35.37,5.69,49.27.39,8.59-3.27,16.35-12.54,16.13-12.95-.03-.06-10.64-4.4-12.04-5.71-5.52-5.15-2.74-22.54-2.17-26.25.73-4.72,21.47-31.07,11.19-64.79-8.07-26.47-31.13-46.33-59.4-51.3Z"/>
    <path class="cls-7" d="M226.58,163.34c.47-3.05,9.3-15.16,12.71-32.44-2.65,1.9-4.8,4.2-6,6.99-9.59,24.92-31.22,43.9-57.65,47.22l2.06,9.02c-2.35.99-4.7,1.97-7.05,2.96,1.48,1.55,1.41,8.5,4.73,10.77,14.2,9.69,35.37,5.69,49.27.39,8.59-3.27,16.35-12.54,16.13-12.95-.03-.06-10.64-4.4-12.04-5.71-5.52-5.15-2.74-22.54-2.17-26.25Z"/>
    <path class="cls-15" d="M225.83,187.44c-1.05-4.87-2.01-12.11-.92-20.74,1.5-11.93,6.19-20.71,9.23-25.49-1.12,1.24-2.79,3.13-4.72,5.5-7.35,9.04-7.78,11.98-12.17,17.44-7.18,8.94-15.96,13.43-20.57,15.8-4.87,2.49-9.23,4.02-12.45,4.96l.2.88c8.33,2.33,17.86.12,26.04,2.35,6.94,1.89,12.98,1.64,15.36-.69Z"/>
    <path class="cls-6" d="M304.01,62.49c-1.79-.38-4.38-2.38-6.54-9.59-2.19-7.31-6.75-28.63-15.67-39.87-9.21-11.6-26.01-11.96-28.96-12.03-19.31-.41-31.64,12.53-33.6,14.66-.47-.09-.95-.18-1.46-.26-3.5-.6-7.95-1.13-13.12-1.2-3.38-.04-8.08-.1-13.68.99-4.33.84-11.12,2.75-18.67,7.54-12.15,3.74-22.57,8.19-24.52,8.63-3.42.78-8.26,1.93-13.15,5.65-8.34,6.34-10.76,15.53-11.47,18.93-18.26,11.95-27.11,28.05-21.2,54.76,5.91,26.71,23.68,36.73,15.7,46.46,8.74-4.62,6.86-20.59,2.95-36.23-2.68-10.74-8.49-50.25,31.01-34.75,1.34-1.35,18.7-18.33,39.46-13.14,14.53,3.63,21.94,15.93,22.58,17.02,12.71,21.85-5.11,39.68,5.02,59.62,5.53,10.87,20.56,17.37,13.5,28.43,14.75-5.78,35.38-41,32.69-72.84,4.5,4.3,14.48,7.74,19.07,7.61-8.57-7.28,2.7-27.15,2.7-27.15,8.56,7.86,10.89,10.54,9.25,13.82,5.53-1.69,4.4-28.23-3.47-40.43,3.08,2.64,8.53,4.48,11.57,3.36Z"/>
    <path class="cls-30" d="M121.31,76.47c-11.87,5.58-6.58,31.34-.9,43.55-2.72-11.79-7.15-48.31,30.32-34.17-5.52-9.53-17.55-14.96-29.42-9.38Z"/>
    <path class="cls-30" d="M200.75,67.03c5,0,9,2,13,3-17.96-18.95-52.3-7.18-61.39,15.7,12.46-11.92,29.11-16.56,42.61-11.51,12.82,4.8,18.7,15.86,18.7,15.86,2.55,4.79,3.36,9.3,3.64,12.25.1-13.6-3.13-30.56-16.56-35.3Z"/>
    <path class="cls-30" d="M304.01,62.49c-1.79-.38-4.38-2.38-6.54-9.59-2.19-7.31-6.75-28.63-15.67-39.87-7.12-8.96-18.74-11.21-25.03-11.81,17.05,11.45,28.71,29.82,30.52,50.66-3-5-8-6-12-9,1,2,3,5,2,7-.84,19.33-15.8,37.25-12.24,55.54,4.57,4.23,14.36,7.59,18.91,7.46-8.57-7.28,2.7-27.15,2.7-27.15,8.56,7.86,10.89,10.54,9.25,13.82,5.53-1.69,4.4-28.23-3.47-40.43,3.08,2.64,8.53,4.48,11.57,3.36Z"/>
    <path class="cls-30" d="M154.26,66.7s17.28-15.84,36.11-12.81c-18.25-4.61-27.25.89-27.25.89,0,0,12.9-10.19,30.98-6.87-11.71-6.42-31.46,1.03-31.46,1.03,0,0,1.8-5.63,9.18-7.86-9.76,2.63-15.34,9.63-15.34,9.63,0,0-2.83-4.93-10.98-5.88,6.03,2.85,7.5,5.11,7.5,5.11,0,0-11.15-5.3-26.43,5.09,14.22-3.36,23.3.75,23.3.75,0,0-13.48-.5-22.71,6.01,13.39-2.46,27.1,4.92,27.1,4.92Z"/>
    <ellipse class="cls-28" cx="200.66" cy="132.08" rx="11.39" ry="6.28" transform="translate(-15.14 26.54) rotate(-7.29)"/>
    <ellipse class="cls-28" cx="135.76" cy="141.4" rx="8.52" ry="4.7" transform="translate(-16.85 18.38) rotate(-7.29)"/>
    <path class="cls-21" d="M162.45,143.31s-3.96,1.84-2.97,8.06c7.85.44,14.23-4.03,14.23-4.03,0,0-5.34-3.81-11.27-4.03h0Z"/>
    <circle class="cls-25" cx="139.35" cy="123.09" r="7.33" transform="translate(-25.14 36.41) rotate(-13.67)"/>
    <path class="cls-25" d="M201.13,152.85c.8-1.19-.36-2.72-1.73-2.29-14.12,4.38-24.43,10.81-38.03,12.33-1.55.18-1.88,2.3-.44,2.9,22.23,9.25,35.45-5.84,40.19-12.94h0Z"/>
    <path class="cls-29" d="M159.52,151.69s-3.54-8.18.76-10.07c6.49-2.86,14.05,6.43,14.05,6.43-5.47-3.68-10.59-5.06-13.07-3.52-2.06,1.28-2.09,4.6-1.74,7.17h0Z"/>
    <circle class="cls-18" cx="142.27" cy="119.19" r="1.49" transform="translate(-24.13 36.99) rotate(-13.67)"/>
    <path class="cls-27" d="M199.79,105.76h0l-.29.26c-5.05-4.31-11.97-5.3-18.17-3.67-2.06.3-4.1.8-6.61,1.09l-.21-.33c5.96-8.94,19.91-4.87,25.28,2.65h0Z"/>
    <path class="cls-27" d="M127.7,117.2h0l-.36-.14c.86-3.72,2.73-7.24,6.23-9.2,3.38-2.39,8.32-2.26,11.06,1.1l-.15.36c-1.97.4-3.58.56-5.11.8-2.23.26-4.63.13-6.55,1.57-2.21,1.31-3.73,3.39-5.11,5.53h0Z"/>
    <circle class="cls-25" cx="187.63" cy="116.36" r="7.62" transform="translate(-22.18 47.62) rotate(-13.67)"/>
    <circle class="cls-18" cx="189.83" cy="111.72" r="2.2"/>
  </g>
  <g id="manov2">
    <path class="cls-10" d="M314.95,345.74c.71,8.74,1.09,26.46.84,37.28-.26,10.99-1.14,20.98-2.29,29.78-13.97-.11-27.95-.23-41.92-.34v-66.71h43.38Z"/>
    <path class="cls-15" d="M270.68,346.51v67.18c6.35.05,12.7.1,19.05.16-1.11-12.97-7.2-25.8,1.67-37.99,6.3-7.75,15.04-7.62,23.49-8.9-.14-7.78-.43-15.52-.83-20.45h-43.38Z"/>
    <path class="cls-9" d="M107.89,318.14c-6.81,6.09-9.81,7.96-19.39,13.88s-15.61,8.45-23.63,13.03c-8.7-11.66,8.17-53.6-.53-65.26,0,0,5.74-18.29,29.25-10.36,23.51,7.94,14.3,48.7,14.3,48.7Z"/>
  </g>
  <g id="cuerpov2">
    <path class="cls-2" d="M173,196.1c-1.38-.69-2.32-.11-5.18,1.67-8.45.56-26.24,8.39-30.43,11.64-5.16,4.01-18.25,10.96-34.69,30.74s-31.19,25.59-38.75,38.26c23.33-4.67,46.56,55.92,26.12,60.14,22.75-2.89,31.69-27.85,31.69-27.85,0,0-2.17,9.02,9.09,27.18-3.5,21.17,1.21,74.93-2.29,74.93h148.22c6.56-13.89-2.1-31.74,4.06-60.88,0,0,12.38,9.16,29.49,3.71s15.56-8.33,23.22-8.56c-2.82-5.72-1.63-10.01-3.96-12.26.85-9.96-.06-64.69-23.14-96.04-18.36-24.94-47.23-39.23-61.48-42.76-2.81-1.78-5.8-2.87-7.21-2.03,0,0-11.51,17.04-37.3,17.56s-27.46-15.45-27.46-15.45Z"/>
    <path class="cls-17" d="M85.98,257.97c-1.48.21-2.06,1.35-4.46,3.7-1.83,1.8-3.46,3.08-4.5,3.84,4.39,1.95,11.27,5.64,17.91,12.39,7.38,7.49,10.82,15.06,12,17.86,4.75,11.32,4.59,21.53,4.1,26.99,1.92-2.28,3.99-5.13,5.92-8.59,1.41-2.53,2.28-4.54,2.66-5.49,1.23-7.35.21-13.08-.63-16.32-2.61-10.07-8.77-16.45-12.04-19.83-3.7-3.83-7.72-6.76-9.32-7.91-2.74-1.98-1.64-.9-6.38-4.09-2.98-2-3.9-2.75-5.25-2.55Z"/>
    <path class="cls-17" d="M283.29,329c-1,4-.73,8.83-1.65,12.01,3.95,5.51,36.61,5.34,48.05-4.6.11-2.35.15-5.95,0-10.44-11.37,5.83-31.66,9.81-46.4,3.02Z"/>
    <path class="cls-19" d="M279.91,285.65c3.35,13.05,3.65,23.39,3.31,30.32-.29,5.95-1.23,13.24-1.51,15.27-1.43,10.33-2.75,18.02-2.81,18.38,0,0,0,0,0,0-1.03,6.09-.6,11.92.97,17.5"/>
    <path class="cls-19" d="M119.03,59.7c2.62-1.84,6.13-3.92,10.53-5.58,7.07-2.67,13.39-3.12,17.55-3.06"/>
    <path class="cls-11" d="M253.26,77.19c-1.75-5.83-5.65-16.18-12.51-25.75-4.26-5.95-26-30.61-57.67-32.33-14.95-.81-34.57,5.92-35.28,12.26,63.03-12.68,91.61,34.57,92.48,45.82-10.28,3.42-19.85,12.02-18.06,34.98,1.31,16.76,11.1,32.42,29.43,31.7.46-.02,8.03-.37,12.82-4.75,3.54-3.23,7.91-11.94,6.44-38.13-.93-16.57-15.7-23.53-17.67-23.8Z"/>
    <path class="cls-22" d="M223.44,113.25c.03,1.69.51,17.28,12.62,25.28,1.58,1.04,7.37,4.75,15.32,4.34,2.59-.13,8.3-.43,13.02-4.85,3.56-3.33,4.76-7.33,5.19-9.19-.57.57-11.43,10.95-25.85,7.34-10.58-2.65-18.65-11.72-20.3-22.92Z"/>
    <path class="cls-5" d="M264.79,85.4c4.25,2.76,6.27,6.24,7.53,8.93.95,2.03,3.73,8.51,3.11,18.1-.43,6.62-.89,13.8-6.61,18.35-3.22,2.56-6.94,3.37-8.11,3.61,0,0-5.49,1.14-10.87-.55-13.22-4.15-16.3-22.76-16.55-24.46-1.4-9.27,1.49-16,3.38-18.92,1.95-3.01,4.7-4.63,5.18-4.94,4.39-2.9,8.89-3.41,11.03-3.52,2.15,0,7.11.29,11.91,3.4Z"/>
    <path class="cls-26" d="M246.78,126.44c-6.27-4.3-8.22-10.8-9.58-15.31-2.12-7.06-1.68-13.29-1.03-17.23-.73,1.4-1.66,3.49-2.24,6.14-.95,4.3-.5,7.72-.27,9.33.16,1.16,2.84,18.41,16.02,23.27,2.02.75,6.33,1.95,11.4.85,1.89-.41,5.1-1.15,7.91-3.83,4.2-4,4.48-9.41,4.51-10.81-.33.89-3.39,8.62-11.47,10.87-7.43,2.07-13.47-2.07-15.25-3.29Z"/>
    <path class="cls-16" d="M63.32,278.62c3.09-1.74,7.04-1.42,10.2.05,6.51,2.88,10.61,8.9,14.1,14.76,3.52,5.83,7.05,11.76,9.1,18.31,2.07,6.54,3.55,13.79,1.15,20.51-1.19,3.36-4.19,6.12-7.82,6.39,0,0-.04-.2-.04-.2,7.03-2,7.58-10.25,6.82-16.4-.7-6.62-2.72-13.07-5.12-19.3-2.4-6.29-6.25-12-11.14-16.62-4.51-4.49-10.44-9.27-17.17-7.32,0,0-.08-.18-.08-.18h0Z"/>
    <path class="cls-16" d="M333.53,347.18c-4.58.43-8.29,3.46-12.56,4.99-4.38,1.55-8.79,2.87-13.25,4.23-9.05,2.65-19.14.85-26.93-4.38,0,0,.09-.18.09-.18,10.72,3.46,22.39,5.69,33.27,1.88,5.29-2.24,10.09-5.73,15.86-6.84,1.16-.21,2.42-.27,3.56.1,0,0-.03.2-.03.2h0Z"/>
    <path class="cls-24" d="M156.25,377.19c-6-12,11.15-23.24,6.15-34.24-1-3-49.71-5.12-33.15-58.76-8,7-17,31-22,22-9.3-13.52-21.45-31.33-37.67-34.71.09.6.16,1.67-.31,2.83-1.09,2.68-4.08,3.33-4.38,3.39,3.34.23,9.3,1.15,14.92,5.23,4.08,2.96,5.99,6.13,9.45,11.87,5.45,9.04,7.3,16.34,8.81,22.52,0,0,1.75,7.15.47,12.47-.32,1.33-.78,3.24-2.26,5.11-.88,1.11-1.6,1.56-1.49,1.74.27.46,4.99-1.51,9.23-4.38,1.33-.9,3.55-2.53,6.43-5.45,0,0,3.9-3.97,12.25-16.82,0,0-2.17,9.02,9.09,27.18-3.5,21.17,1.21,74.93-2.29,74.93h80.65c-22.1-4.99-42.25-14.52-53.91-34.91Z"/>
    <path class="cls-23" d="M121.26,311.92c-.03-2.55-.17-5.3-.46-8.24-.3-3.06-.73-5.9-1.21-8.49-.4,1.78-1.38,4.95-3.91,8.07-1.86,2.3-3.88,3.72-5.29,4.55,1.04,6.18,1.46,12.34,1.21,17.95,1.98-2.22,4.09-4.86,6.14-7.95,1.36-2.04,2.52-4.02,3.52-5.89Z"/>
    <path class="cls-24" d="M328.46,333.5c.42-4.87.41-20.47-2.41-38.8-1.32,6.39-6.92,29.54-27.97,42.76-6.12,3.85-12.16,5.98-17.24,7.19-.16.78-.32,1.57-.48,2.36-.38,1.94-.74,3.85-1.08,5.74.14-.71.27-1.42.43-2.15,3.44,2.02,9.34,4.82,17.06,5.41,6.4.49,11.3-.74,12.25-.99,6.19-1.61,11.62-4.66,11.62-4.66,1.59-.89,3.85-2.29,7.34-3.35,1.69-.51,3.13-.78,4.09-.93-.35-2.31-.92-4.93-1.81-7.75-.56-1.76-1.17-3.37-1.79-4.83Z"/>
    <path class="cls-23" d="M329.69,335.81c.02-.45.05-1.09.07-1.94,0,0,0-.04,0-.1.02-.7.03-1.47.03-2.3,0-.07,0-.13,0-.2,0-.37,0-.76,0-1.15,0-.05,0-.09,0-.14,0-.44,0-.89-.01-1.35,0-.08,0-.16,0-.24,0-.38-.01-.78-.02-1.18,0-.12,0-.23,0-.35-.03-1.04.11-1.36-.04-1.47-.11-.08-.36-.06-1.04.45-2.3,1.05-4.84,2.07-7.6,3-6.06,2.04-11.65,3.09-16.39,3.62-2.46,2.19-5.83,4.77-10.18,7.06-3.28,1.73-6.35,2.88-8.96,3.67,5.91,1.2,16.16,2.42,28.14-.69,6.72-1.75,12.1-4.37,16.03-6.7Z"/>
    <line class="cls-8" x1="127.93" y1="412.8" x2="209.46" y2="412.8"/>
    <line class="cls-3" x1="209.46" y1="412.45" x2="276.27" y2="412.45"/>
  </g>
  <g id="holi">
    <path id="brazo" class="cls-10" d="M63.91,256.55c-7.6-21.44-10.2-51.55-10.93-60.2,1.86-2.82,4.31-6.28,5.54-10.81,1.84-6.76,3.8-13.23,3.72-20.72-.03-2.35,1.94-7.73,3.73-10.17,3.68-5.04,6.59-5.96,6.77-7.09.03-.17-.59-2.73-2.33-4.26-2.2-1.95-7.36.26-10.11,3.79-1.6,2.05-1.62,3.57-3.64,5.25-1.71,1.42-3.59,1.9-4.93,2.07-.76-5.04-5.5-34.08-6.29-39.13-.79-5.05.46-11.78-2.54-12.31-3-.53-5.03,6.36-5.03,10.64,0,7.04,1.1,16.73.96,21.65-.09,3.18-.57,5.83-1.05,7.79-5.38-17.84-8.42-37.83-8.07-42.11.14-1.77-2.56-2.73-4.11-2.6-7.78.62-.65,35.14,1.14,46.24-5.49-20.57-6.85-25.77-7.65-32.53-.78-6.66-2.2-7.17-3.07-7.11-11.7.81,1.66,33.66,2.11,46.07-5.5-7.56-7.1-9.97-9.26-14.81-2.46-5.49-2.78-11.34-5.46-10.47-6.59,2.14,1.95,20.9,6.2,31.07,1.41,6.24,2.24,11.34,2.73,14.86.74,5.33,2.84,19.72,8.82,24.98,0,0,1.66,2.48,2.84,4.6,1.77,3.19,3.25,7.94,3.38,13.23.43,16.68-.69,79.19,5.09,101.04,6.37,24.08,17.72,29.75,22.95,30.94,9.45,2.14,19.63-8.27,21.41-12.19,9.66-21.28-6.67-52.63-12.93-77.7Z"/>
  </g>
  <g id="sketch">
    <path class="cls-16" d="M135.95,167.56c11.73,14.8,30.76,19.79,48.72,15.19,5.86-1.38,11.53-3.55,17-6.13l-4.03,2.1-4.15,1.87c-8.44,3.46-17.62,5.41-26.77,4.6-12.11-1.16-23.86-7.54-30.77-17.62h0Z"/>
    <path class="cls-21" d="M49.46,157.01c-5.47,4.22-9.52,10.09-11.92,16.53-.85,2.14-1.4,4.38-1.98,6.63.11-1.15.22-2.32.41-3.47,1.48-8,6.23-15.74,13.49-19.69h0Z"/>
    <path class="cls-16" d="M124.76,289.57c-2.77,10.82-3.19,22.1-.24,32.9,1.39,4.87,3.69,9.51,6.34,13.81.12.18.08.16.06.36-1.14,12.12.18,24.32.17,36.49-.02,4.07.09,8.19-.61,12.26,0,0-.2-.03-.2-.03.08-3.46-.5-8.65-.76-12.16-.93-12.2-1.92-24.61.32-36.74,0,0,.06.36.06.36-5.31-10.99-10.95-22.93-8.76-35.46.61-4.11,1.83-8.08,3.43-11.85l.19.06h0Z"/>
    <path class="cls-16" d="M284.57,303.24c1.96,9.49-.04,19.18-1.6,28.57-.92,6.3-.99,12.69-1.61,19.02-.43,6.09-2.08,22.19-2.72,28.45,0,0-.2,0-.2,0-.62-6.37-.46-12.79,0-19.15.64-9.55,2.8-18.91,3.89-28.4.3-3.17.39-6.36.58-9.53.45-6.34,1.42-12.58,1.47-18.93l.2-.03h0Z"/>
    <path class="cls-20" d="M244.62,202.35c-8.66,7.26-18.94,12.42-29.81,15.43-14.59,4.95-31.29,7.12-42.53-5.79-2.5-2.9-4.44-6.21-5.87-9.68,0,0,.18-.09.18-.09,2.01,3.16,4.2,6.15,6.83,8.68,10.66,10.69,27.62,10.87,41.18,6.26,6.97-2.61,13.45-6.28,20.08-9.63,3.28-1.74,6.54-3.55,9.82-5.35,0,0,.11.16.11.16h0Z"/>
    <path class="cls-27" d="M265.53,84.75c1.55-17.85-1.92-38.72-16.75-50.32-4.97-3.77-11.12-5.83-17.37-6.04-1.55-3.86-4.3-7.17-7.87-9.37-10.6-6.24-24.12-5.19-35.83-3.06,7.99-2.27,16.42-3.33,24.72-2.34,8.37.89,17.12,5.29,20.51,13.44,0,0-.84-.58-.84-.58,28.46,1.44,37.86,34.45,33.42,58.28h0Z"/>
    <path class="cls-27" d="M284.67,77.4c3.02,3.03,2.89,7.99,1.52,11.79-1.41,3.58-2.27,8.24,1.27,10.86-.95-.4-1.72-1.18-2.3-2.05-1.74-2.76-.95-6.34.09-9.14,1.31-3.7,1.69-8.03-.58-11.46h0Z"/>
    <path class="cls-13" d="M148.49,31.17c20.68-5.48,44.06-3.03,62.33,8.46,6.11,3.81,11.47,8.74,15.96,14.26-2.59-2.45-5.14-4.92-8-7.02-19.6-15.46-46.08-19.47-70.29-15.7h0Z"/>
    <path class="cls-13" d="M240.63,77.07c3.78-1.65,8.49-1.99,12.21,0-4.11-.62-8.07-.29-12.21,0h0Z"/>
    <path class="cls-13" d="M153.12,25.65c25.07-13.33,57.29-5.41,77.49,13.35,6.85,6.27,12.49,13.85,16.37,22.2-4.57-7.99-10.52-15.08-17.41-21.04-20.52-17.79-50.88-25.48-76.45-14.51h0Z"/>
    <path class="cls-12" d="M75.63,293.15c-.16-1.6-.21-2.78-.23-3.6-.02-.9-.03-1.35,0-1.35.42-.1,5.11,11.78,6.03,26.37.55,8.69.99,17.37-4.27,22.14-1.3,1.18-4.1,3.17-4.44,2.81-.25-.26,1.02-1.47,2.3-3.64,2.75-4.64,3.41-9.11,3.71-11.29.06-.42.28-2.09.31-4.31.04-2.99-.31-4.07-1.49-12.7-.21-1.51-.6-4.45-.64-4.72-.52-3.87-.46-3.48-.57-4.28-.21-1.51-.31-2.26-.51-3.77-.09-.71-.13-1.09-.19-1.66Z"/>
    <line class="cls-4" x1="289.48" y1="412.27" x2="312.78" y2="412.27"/>
  </g>
</svg>